<?xml version="1.0" encoding="UTF-8" standalone="no"?>

<svg xmlns:sketch="http://www.bohemiancoding.com/sketch/ns" xmlns="http://www.w3.org/2000/svg" height="344px" width="934px" version="1.1" xmlns:xlink="http://www.w3.org/1999/xlink" viewBox="0 0 934 344"><!-- Generator: Sketch 3.4 (15588) - http://www.bohemiancoding.com/sketch -->
 <title>İstanbul haritası</title>

 <defs>
  <linearGradient x1="51.7568483%" y1="15.7520839%" x2="50%" y2="100%" id="redGradient">
    <stop stop-color="#FF512F" offset="0%"/>
    <stop stop-color="#DD2476" offset="100%"/>
  </linearGradient>
  <linearGradient id="linearGradient-2" y1="15.752%" x2="50%" x1="50.43%" y2="100%">
   <stop stop-color="#1D976C" offset="0"/>
   <stop stop-color="#BEE371" offset="1"/>
 </linearGradient>
 <linearGradient id="linearGradient-3" y1="15.752%" x2="50%" x1="51.197%" y2="100%">
   <stop stop-color="#1D976C" offset="0"/>
   <stop stop-color="#BEE371" offset="1"/>
 </linearGradient>
 <linearGradient id="linearGradient-4" y1="44.813%" x2="50%" x1="51.757%" y2="57.573%">
   <stop stop-color="#1D976C" offset="0"/>
   <stop stop-color="#BEE371" offset="1"/>
 </linearGradient>
 <linearGradient id="linearGradient-5" y1="22.497%" x2="50%" x1="51.757%" y2="90.153%">
   <stop stop-color="#1D976C" offset="0"/>
   <stop stop-color="#BEE371" offset="1"/>
 </linearGradient>
 <linearGradient id="linearGradient-6" y1="15.752%" x2="50%" x1="50.55%" y2="100%">
   <stop stop-color="#1D976C" offset="0"/>
   <stop stop-color="#BEE371" offset="1"/>
 </linearGradient>
 <linearGradient id="linearGradient-7" y1="33.251%" x2="50%" x1="51.757%" y2="74.452%">
   <stop stop-color="#1D976C" offset="0"/>
   <stop stop-color="#BEE371" offset="1"/>
 </linearGradient>
 <linearGradient id="linearGradient-8" y1="18.361%" x2="50%" x1="51.757%" y2="96.191%">
   <stop stop-color="#1D976C" offset="0"/>
   <stop stop-color="#BEE371" offset="1"/>
 </linearGradient>
 <linearGradient id="linearGradient-9" y1="22.061%" x2="50%" x1="51.757%" y2="90.79%">
   <stop stop-color="#1D976C" offset="0"/>
   <stop stop-color="#BEE371" offset="1"/>
 </linearGradient>
 <linearGradient id="linearGradient-10" y1="15.752%" x2="50%" x1="51.062%" y2="100%">
   <stop stop-color="#1D976C" offset="0"/>
   <stop stop-color="#BEE371" offset="1"/>
 </linearGradient>
 <linearGradient id="linearGradient-11" y1="39.046%" x2="50%" x1="51.757%" y2="65.993%">
   <stop stop-color="#1D976C" offset="0"/>
   <stop stop-color="#BEE371" offset="1"/>
 </linearGradient>
 <linearGradient id="linearGradient-12" y1="37.726%" x2="50%" x1="51.757%" y2="67.92%">
   <stop stop-color="#1D976C" offset="0"/>
   <stop stop-color="#BEE371" offset="1"/>
 </linearGradient>
 <linearGradient id="linearGradient-13" y1="36.963%" x2="50%" x1="51.757%" y2="69.033%">
   <stop stop-color="#1D976C" offset="0"/>
   <stop stop-color="#BEE371" offset="1"/>
 </linearGradient>
 <linearGradient id="linearGradient-14" y1="35.803%" x2="50%" x1="51.757%" y2="70.727%">
   <stop stop-color="#1D976C" offset="0"/>
   <stop stop-color="#BEE371" offset="1"/>
 </linearGradient>
 <linearGradient id="linearGradient-15" y1="36.893%" x2="50%" x1="51.757%" y2="69.135%">
   <stop stop-color="#1D976C" offset="0"/>
   <stop stop-color="#BEE371" offset="1"/>
 </linearGradient>
 <linearGradient id="linearGradient-16" y1="23.758%" x2="50%" x1="51.757%" y2="88.311%">
   <stop stop-color="#1D976C" offset="0"/>
   <stop stop-color="#BEE371" offset="1"/>
 </linearGradient>
 <linearGradient id="linearGradient-17" y1="31.037%" x2="50%" x1="51.757%" y2="77.686%">
   <stop stop-color="#1D976C" offset="0"/>
   <stop stop-color="#BEE371" offset="1"/>
 </linearGradient>
 <linearGradient id="linearGradient-18" y1="31.051%" x2="50%" x1="51.757%" y2="77.664%">
   <stop stop-color="#1D976C" offset="0"/>
   <stop stop-color="#BEE371" offset="1"/>
 </linearGradient>
 <linearGradient id="linearGradient-19" y1="30.029%" x2="50%" x1="51.757%" y2="79.156%">
   <stop stop-color="#1D976C" offset="0"/>
   <stop stop-color="#BEE371" offset="1"/>
 </linearGradient>
 <linearGradient id="linearGradient-20" y1="15.752%" x2="50%" x1="51.316%" y2="100%">
   <stop stop-color="#1D976C" offset="0"/>
   <stop stop-color="#BEE371" offset="1"/>
 </linearGradient>
 <linearGradient id="linearGradient-21" y1="20.69%" x2="50%" x1="51.757%" y2="92.792%">
   <stop stop-color="#1D976C" offset="0"/>
   <stop stop-color="#BEE371" offset="1"/>
 </linearGradient>
 <linearGradient id="linearGradient-22" y1="21.574%" x2="50%" x1="51.757%" y2="91.5%">
   <stop stop-color="#1D976C" offset="0"/>
   <stop stop-color="#BEE371" offset="1"/>
 </linearGradient>
 <linearGradient id="linearGradient-23" y1="40.093%" x2="50%" x1="51.757%" y2="64.464%">
   <stop stop-color="#1D976C" offset="0"/>
   <stop stop-color="#BEE371" offset="1"/>
 </linearGradient>
 <linearGradient id="linearGradient-24" y1="15.752%" x2="50%" x1="51.461%" y2="100%">
   <stop stop-color="#1D976C" offset="0"/>
   <stop stop-color="#BEE371" offset="1"/>
 </linearGradient>
 <linearGradient id="linearGradient-25" y1="15.752%" x2="50%" x1="50.563%" y2="100%">
   <stop stop-color="#1D976C" offset="0"/>
   <stop stop-color="#BEE371" offset="1"/>
 </linearGradient>
 <linearGradient id="linearGradient-26" y1="15.752%" x2="50%" x1="51.246%" y2="100%">
   <stop stop-color="#1D976C" offset="0"/>
   <stop stop-color="#BEE371" offset="1"/>
 </linearGradient>
 <linearGradient id="linearGradient-27" y1="15.752%" x2="50%" x1="51.073%" y2="100%">
   <stop stop-color="#1D976C" offset="0"/>
   <stop stop-color="#BEE371" offset="1"/>
 </linearGradient>
 <linearGradient id="linearGradient-28" y1="15.752%" x2="50%" x1="51.342%" y2="100%">
   <stop stop-color="#1D976C" offset="0"/>
   <stop stop-color="#BEE371" offset="1"/>
 </linearGradient>
 <linearGradient id="linearGradient-29" y1="15.752%" x2="50%" x1="50.466%" y2="100%">
   <stop stop-color="#1D976C" offset="0"/>
   <stop stop-color="#BEE371" offset="1"/>
 </linearGradient>
 <linearGradient id="linearGradient-30" y1="33.378%" x2="50%" x1="51.757%" y2="74.267%">
   <stop stop-color="#1D976C" offset="0"/>
   <stop stop-color="#BEE371" offset="1"/>
 </linearGradient>
 <linearGradient id="linearGradient-31" y1="24.203%" x2="50%" x1="51.757%" y2="87.662%">
   <stop stop-color="#1D976C" offset="0"/>
   <stop stop-color="#BEE371" offset="1"/>
 </linearGradient>
 <linearGradient id="linearGradient-32" y1="31.354%" x2="50%" x1="51.757%" y2="77.222%">
   <stop stop-color="#1D976C" offset="0"/>
   <stop stop-color="#BEE371" offset="1"/>
 </linearGradient>
 <linearGradient id="linearGradient-33" y1="15.752%" x2="50%" x1="51.007%" y2="100%">
   <stop stop-color="#1D976C" offset="0"/>
   <stop stop-color="#BEE371" offset="1"/>
 </linearGradient>
</defs>
<g id="haritaContainer" fill-rule="evenodd" sketch:type="MSPage" fill="none">
  <g id="harita" transform="translate(-62 -236)" sketch:type="MSLayerGroup">
   <g id="layerSinir" sketch:type="MSShapeGroup" transform="translate(522.55 367.66) rotate(-16) translate(-472 -246.5)">
    <g id="gAvrupaYakasi" transform="translate(0)">
     <g id="pathBakirkoy" transform="translate(367 361)">
      <g id="path-2-link" stroke="#000" fill="url(#linearGradient-2)">
       <path id="path-2" d="m3.1251 12.527l-2.534-0.451 1.0042 2.361 11.848 7.894 5.646 3.911 1.074 2.287 9.906 0.857 3.841-1.58 4.464-9.297 8.158-0.379 2.607 2.622 9.097-6.666 0.471-9.6981-0.341-3.7527-18.083 6.3636-15.123-1.1055-3.857-3.4886-2.645-0.9563-2.489 0.0734-2.05 1.8655 2.567 8.0667-4.346-2.6964-3.8735 2.0204-4.982-0.9107-0.3594 2.6597z"/>
     </g>
     <path id="path-2" d="m3.1251 12.527l-2.534-0.451 1.0042 2.361 11.848 7.894 5.646 3.911 1.074 2.287 9.906 0.857 3.841-1.58 4.464-9.297 8.158-0.379 2.607 2.622 9.097-6.666 0.471-9.6981-0.341-3.7527-18.083 6.3636-15.123-1.1055-3.857-3.4886-2.645-0.9563-2.489 0.0734-2.05 1.8655 2.567 8.0667-4.346-2.6964-3.8735 2.0204-4.982-0.9107-0.3594 2.6597z"/>
   </g>
   <g id="pathBuyukcekmece" transform="translate(220 281)">
    <g id="path-3-link" stroke="#000" fill="url(#linearGradient-3)">
     <path id="path-3" d="m42.807 88.941l-2.531-2.424-10.733-5.648-2.207-3.075-11.535-6.462-3.34-2.922-0.47-2.922-11.834-6.678 3.291-7.003 1.9851 0.218 4.0852-4.11 3.7647 6.171 2.318-0.256 1.96-6.798-1.96-1.178-0.192-2.33-1.754-3.073-0.013-0.025-0.499-5.25 2.125-10.357 1.96-0.909-2.446-3.648-0.231-8.898 1.063-1.831 2.024 2.663 1.857-0.538-1.025-1.8306 3.15-4.7241 7.223 11.113 6.557-2.855 3.33 2.112 3.342-2.214 5.43 6.926 6.058-11.395 2.702 1.293 6.019-8.0395 4.405 0.1664 1.576-1.6003 2.061 5.774 2.382 0.6401-0.025 3.7003 2.215 0.64 2.062-4.4939 7.044 13.648 3.022 6.106 4.137-9.525 7.03 3.163 3.99 3.645 1.25-1.165 5.39 9.037 1.38-3.81 2.02 0.847 1.54-3.003 1.64 7.598 2.56 5.223-1.1 2.504 3.28 12.389 3.63 3.849 2.13 3.497 0.15 3.783-2.2 0.696-2.47-6.704-5.08-6.078-0.85-5.847-1.53 0.596 0.8 2.633-4.05 2.602 1.1 1.605 4.08 2.071-2.88 2.514-0.3 2.363 2.35 0.514 0.57 1.518 1.62-0.061 0.06 8.171-1.89 1.919 2.06 2.187-1.34 6.118-3.77-0.845-1.59-1.641-1.9 3.201-0.08 3.204 5.05 4.594 1.39 2.515-0.86 3.206 0.41 2.178-4.25 0.89-0.85 2.275-9.52 2.68-4.621-0.61-16.352 1.39-9.764-5.272-1.658-3.004 1.717-2.202-1.336-6.86 1.42-2.064 0.296-10.096-1.81-4.068-9.953-2.543-0.151-3.506 3.959-0.475 1.271-1.826 1.673-1.343 0.467-10.098-0.864-2.569-2.466-3.373-3.028-2.57-3.349-4.416-1.02-4.096 1.867-1.605-0.302-1.605-1.186 0.001-1.588 1.929-1.185-0.079-2.873-3.613 0.019-2.086 4.116-4.818-0.463-3.211 1.144-3.051-0.945-1.123 3.145-4.737-2.738-1.3835-6.086 11.416-5.418-6.952-3.358 2.224-5.062 4.894 0.437 0.562-0.205 6.263 2.045 5.46 3.49 2.73 3.973 1.685 1.171 1.839-0.114 2.32-2.444 0.233 1.252 3.525 2.296 2.159-1.078 0.634 0.93 2.08 7.041 1.456-0.269 5.552-2.761 2.42 1.251 3.897 1.733 0.202 0.93 1.006 4.039 0.489 0.09 3.32-1.722 0.245-2.403 2.289-4.903 4.335-0.131 3.198-2.631 1.835-2.858 8.877z"/>
   </g>
   <path id="path-3" d="m42.807 88.941l-2.531-2.424-10.733-5.648-2.207-3.075-11.535-6.462-3.34-2.922-0.47-2.922-11.834-6.678 3.291-7.003 1.9851 0.218 4.0852-4.11 3.7647 6.171 2.318-0.256 1.96-6.798-1.96-1.178-0.192-2.33-1.754-3.073-0.013-0.025-0.499-5.25 2.125-10.357 1.96-0.909-2.446-3.648-0.231-8.898 1.063-1.831 2.024 2.663 1.857-0.538-1.025-1.8306 3.15-4.7241 7.223 11.113 6.557-2.855 3.33 2.112 3.342-2.214 5.43 6.926 6.058-11.395 2.702 1.293 6.019-8.0395 4.405 0.1664 1.576-1.6003 2.061 5.774 2.382 0.6401-0.025 3.7003 2.215 0.64 2.062-4.4939 7.044 13.648 3.022 6.106 4.137-9.525 7.03 3.163 3.99 3.645 1.25-1.165 5.39 9.037 1.38-3.81 2.02 0.847 1.54-3.003 1.64 7.598 2.56 5.223-1.1 2.504 3.28 12.389 3.63 3.849 2.13 3.497 0.15 3.783-2.2 0.696-2.47-6.704-5.08-6.078-0.85-5.847-1.53 0.596 0.8 2.633-4.05 2.602 1.1 1.605 4.08 2.071-2.88 2.514-0.3 2.363 2.35 0.514 0.57 1.518 1.62-0.061 0.06 8.171-1.89 1.919 2.06 2.187-1.34 6.118-3.77-0.845-1.59-1.641-1.9 3.201-0.08 3.204 5.05 4.594 1.39 2.515-0.86 3.206 0.41 2.178-4.25 0.89-0.85 2.275-9.52 2.68-4.621-0.61-16.352 1.39-9.764-5.272-1.658-3.004 1.717-2.202-1.336-6.86 1.42-2.064 0.296-10.096-1.81-4.068-9.953-2.543-0.151-3.506 3.959-0.475 1.271-1.826 1.673-1.343 0.467-10.098-0.864-2.569-2.466-3.373-3.028-2.57-3.349-4.416-1.02-4.096 1.867-1.605-0.302-1.605-1.186 0.001-1.588 1.929-1.185-0.079-2.873-3.613 0.019-2.086 4.116-4.818-0.463-3.211 1.144-3.051-0.945-1.123 3.145-4.737-2.738-1.3835-6.086 11.416-5.418-6.952-3.358 2.224-5.062 4.894 0.437 0.562-0.205 6.263 2.045 5.46 3.49 2.73 3.973 1.685 1.171 1.839-0.114 2.32-2.444 0.233 1.252 3.525 2.296 2.159-1.078 0.634 0.93 2.08 7.041 1.456-0.269 5.552-2.761 2.42 1.251 3.897 1.733 0.202 0.93 1.006 4.039 0.489 0.09 3.32-1.722 0.245-2.403 2.289-4.903 4.335-0.131 3.198-2.631 1.835-2.858 8.877z"/>
 </g>
 <g id="pathAvcilar" transform="translate(328 296)">
  <g id="path-4-link" stroke="#000" fill="url(#linearGradient-4)">
   <path id="path-4" d="m5.6855 10.755l1.6324 7.598 2.5628 5.223-1.0945 2.504 3.2728 12.389 3.631 3.849 2.133 3.497 0.152 3.783-2.199 0.696-2.474-6.704-5.0841-6.078-0.8486-5.847-1.526 0.596 0.8026 2.633-4.0502 2.602 1.0974 1.605 4.0748 2.071-2.8759 2.514-0.2971 2.363 2.3459 0.514 0.573 1.518 1.6178-0.061 0.0588 8.171-1.8888 1.919 2.0648 2.187-1.3417 6.118-3.7717-0.845-1.59-1.641-1.9004 3.201-0.07937 3.204 5.0471 4.594 1.3887 2.515-0.8527 3.206 0.4092 2.178 1.8526-1.038 9.5979 2.277 4.617-0.694 3.894 0.51 6.465-5.995-6.872-1.899-3.264-8.948-1.819-1.719-0.533-2.362-2.596-1.744-0.99-1.904 1.083-1.658-2.855-7.022 2.835-0.889 4.64 7.491 3.681 0.102 0.709-0.701 0.146-3.352-3.596-12.528-2.626-2.891 6.13-8.191 1.311-2.49-5.519-1.525-1.347-2.89-5.765-7.388-4.078-3.211 0.341-1.284-3.9179-6.8253-3.5157-3.2915 1.3046 5.4628-0.3035 4.525z"/>
 </g>
 <path id="path-4" d="m5.6855 10.755l1.6324 7.598 2.5628 5.223-1.0945 2.504 3.2728 12.389 3.631 3.849 2.133 3.497 0.152 3.783-2.199 0.696-2.474-6.704-5.0841-6.078-0.8486-5.847-1.526 0.596 0.8026 2.633-4.0502 2.602 1.0974 1.605 4.0748 2.071-2.8759 2.514-0.2971 2.363 2.3459 0.514 0.573 1.518 1.6178-0.061 0.0588 8.171-1.8888 1.919 2.0648 2.187-1.3417 6.118-3.7717-0.845-1.59-1.641-1.9004 3.201-0.07937 3.204 5.0471 4.594 1.3887 2.515-0.8527 3.206 0.4092 2.178 1.8526-1.038 9.5979 2.277 4.617-0.694 3.894 0.51 6.465-5.995-6.872-1.899-3.264-8.948-1.819-1.719-0.533-2.362-2.596-1.744-0.99-1.904 1.083-1.658-2.855-7.022 2.835-0.889 4.64 7.491 3.681 0.102 0.709-0.701 0.146-3.352-3.596-12.528-2.626-2.891 6.13-8.191 1.311-2.49-5.519-1.525-1.347-2.89-5.765-7.388-4.078-3.211 0.341-1.284-3.9179-6.8253-3.5157-3.2915 1.3046 5.4628-0.3035 4.525z"/>
</g>
<g id="pathBagcilar" transform="translate(386 318)">
  <g id="path-5-link" stroke="#000" fill="url(#linearGradient-5)">
   <path id="path-5" d="m15.733 4.0593l-0.191 1.5839 1.722 1.1989 2.482-1.3627 0.345-1.5685 3.092-3.6593 2.097 0.68027-2.496 4.9457-0.015 4.6934 2.537 5.277-0.592 1.439 0.901 2.915 4.444 1.214 0.586 6.927-2.05-1.586-2.628-0.179-1.815 1.776 1.812 3.633-0.774 2.305-1.845-2.061-3.278-0.461-0.692-1.767-1.536 1.921-1.896-0.167-1.165-1.536-6.9155 2.407-4.2774-2.842-0.2177-1.639-1.5752-0.371v-0.013l0.3842-5.851-2.0362-5.851 2.7661-9.7682 1.1654-2.9446 1.5946 0.8602 1.2341-2.8969 8.8326 2.7478zm-14.466 23.806l-0.37137 0.077v-0.013l0.37137-0.064z"/>
 </g>
 <path id="path-5" d="m15.733 4.0593l-0.191 1.5839 1.722 1.1989 2.482-1.3627 0.345-1.5685 3.092-3.6593 2.097 0.68027-2.496 4.9457-0.015 4.6934 2.537 5.277-0.592 1.439 0.901 2.915 4.444 1.214 0.586 6.927-2.05-1.586-2.628-0.179-1.815 1.776 1.812 3.633-0.774 2.305-1.845-2.061-3.278-0.461-0.692-1.767-1.536 1.921-1.896-0.167-1.165-1.536-6.9155 2.407-4.2774-2.842-0.2177-1.639-1.5752-0.371v-0.013l0.3842-5.851-2.0362-5.851 2.7661-9.7682 1.1654-2.9446 1.5946 0.8602 1.2341-2.8969 8.8326 2.7478zm-14.466 23.806l-0.37137 0.077v-0.013l0.37137-0.064z"/>
</g>
<g id="pathBahcelievler" transform="translate(385 345)">
  <g id="path-6-link" stroke="#000" fill="url(#linearGradient-6)">
   <path id="path-6" d="m4.5394 2.7476l4.2831 2.8422 6.9125-2.4093 1.167 1.5333 1.897 0.1629 1.529-1.9152 0.703 1.7656 3.272 0.464 1.851 2.0617 4.75 6.5492 1.244 0.123 3.416-5.9844 1.039 8.1344 3.862 0.564-18.082 6.363-15.124-1.105-3.8561-3.489-2.7711-10.798 1.216-6.7131 0.8752-0.18217 1.6077 0.39497 0.2087 1.6379z"/>
 </g>
 <path id="path-6" d="m4.5394 2.7476l4.2831 2.8422 6.9125-2.4093 1.167 1.5333 1.897 0.1629 1.529-1.9152 0.703 1.7656 3.272 0.464 1.851 2.0617 4.75 6.5492 1.244 0.123 3.416-5.9844 1.039 8.1344 3.862 0.564-18.082 6.363-15.124-1.105-3.8561-3.489-2.7711-10.798 1.216-6.7131 0.8752-0.18217 1.6077 0.39497 0.2087 1.6379z"/>
</g>
<g id="pathBesiktas" transform="translate(472 299)">
  <g id="path-7-link" stroke="#000" fill="url(#linearGradient-7)">
   <path id="path-7" d="m20.499 32.016l-1.286 3.565-5.99 2.803-10.675 4.669-1.6443-1.58 0.2433-1.332 1.5496 0.499 1.0501-5.402 2.0747-0.807-1.9851-2.88 1.3831-1.55v-2.675l0.8837-2.318 2.4332-0.064 1.5627 2.394 2.01-5.492-3.8544-8.206-0.8837-5.8126 4.2131-7.6815 2.459 4.4297 3.227 0.9858 2.728-0.9858-0.499 4.7113 4.469 0.7421v3.726l6.941 1.728-5.454 2.358-0.496 3.472 1.11 1.984-0.745 1.486-1.611 0.622-0.614 2.227-1.365 1.244-1.235 3.14z"/>
 </g>
 <path id="path-7" d="m20.499 32.016l-1.286 3.565-5.99 2.803-10.675 4.669-1.6443-1.58 0.2433-1.332 1.5496 0.499 1.0501-5.402 2.0747-0.807-1.9851-2.88 1.3831-1.55v-2.675l0.8837-2.318 2.4332-0.064 1.5627 2.394 2.01-5.492-3.8544-8.206-0.8837-5.8126 4.2131-7.6815 2.459 4.4297 3.227 0.9858 2.728-0.9858-0.499 4.7113 4.469 0.7421v3.726l6.941 1.728-5.454 2.358-0.496 3.472 1.11 1.984-0.745 1.486-1.611 0.622-0.614 2.227-1.365 1.244-1.235 3.14z"/>
</g>
<g id="pathBeyoglu" transform="translate(448 323)">
  <g id="path-8-link" stroke="#000" fill="url(#linearGradient-8)">
   <path id="path-8" d="m0.92862 13.781l-0.78354-4.7367 3.9583-2.1132-0.3567-4.4831 2.1538-1.7424-0.5651 1.7646 2.19 2.8166 0.794 2.6501 2.3696 0.5505 0.025 0.0384 0.448 1.3827 2.19 2.0865v1.383l1.217 1.127 1.319-1.396 1.575 0.448 2.1 2.561 5.315 1.382v-0.025l1.639 1.562-4.066 5.159-4.882 3.948-2.578-0.153-2.179-1.734 0.042-3.17-3.9455-3.017-2.333-0.101-1.9761-3.765-1.6276-1.897-2.0432-0.526h0.00002z"/>
 </g>
 <path id="path-8" d="m0.92862 13.781l-0.78354-4.7367 3.9583-2.1132-0.3567-4.4831 2.1538-1.7424-0.5651 1.7646 2.19 2.8166 0.794 2.6501 2.3696 0.5505 0.025 0.0384 0.448 1.3827 2.19 2.0865v1.383l1.217 1.127 1.319-1.396 1.575 0.448 2.1 2.561 5.315 1.382v-0.025l1.639 1.562-4.066 5.159-4.882 3.948-2.578-0.153-2.179-1.734 0.042-3.17-3.9455-3.017-2.333-0.101-1.9761-3.765-1.6276-1.897-2.0432-0.526h0.00002z"/>
</g>
<g id="pathCatalca" transform="translate(50)">
  <g id="path-9-link" stroke="#000" fill="url(#linearGradient-9)">
   <path id="path-9" d="m288.69 161.37l-1.82-0.86-4.63 9.7 2.02 0.24-1.38 2.36 1.43 1.72-3.24 3.18-4.57 0.75-0.35 13.93 0.16 2.89-1.3 2.41 5.15 4.3-1.57 6.1 0.94 2.49-4.58 6.03 2.15 10.09-1.88 5.99-7.79 12.66-3.78 6.76-0.02 4.66 0.15 2.48 6.21-3.33 2.64 0.82 6.6 0.02 2.41 6.46-0.27 4.09 4.18 0.28-0.02 7.82 3.92 1.08-4.27 6.54-4.11 3.33-5.55 6.21 1.48 1.18-8.8 7.43-7.04-3.16-4.14 9.53-3.02-6.11-7.04-13.65-2.06 4.5-2.22-0.65 0.02-3.69-2.38-0.64-2.06-5.78-1.57 1.6-4.41-0.16-6.02 8.03-2.7-1.29-6.06 11.4-5.43-6.93-3.34 2.22-3.33-2.12-6.55 2.86-7.23-11.12-3.15 4.72 1.03 1.84-1.86 0.54-2.02-2.66-1.06 1.83 0.22 8.9 2.45 3.64-1.97 0.91-2.11 10.36 0.49 5.28-2.23-4.03-6.73 0.79-6.32-5.56-5.69-1.39-4.13 2.37-3.48-3.41-5.42-2.78-2.85 0.76-1.72 3.5-1.24-2.62 2.84-7.5-1.99-2.37-0.28-4.89-1.89-5.05 0.61-5.88-3.4-3.16 4.46 0.07-3.24-8.78 1.49-3.6-1.73-2.97 0.68-4.25-4.94-1.04-0.76-5.29-2.06-2.09 3.94-6.41-3.39-4.64 3.36-1.43 1.44-4.48-1.99-4.59-2.15 1.02-2.8-3.47-4.88-5.09-2.7-12.57-6.01 1.51-6.33-3.47 0.46-3.3-5-5.86-2.12-9.88-2.43 0.73 7.34-9.44 3.03-9.06 2.38-1.02-5.81-2.11-3.73 1.43-2.27-0.5-4.371 2.39-3.068-4.91-2.587 1.04-3.566-4.04-1.156-4.52 3.664-5.8 4.328-6.86-4.459-5.71-1.566-0.41-3.174 4.73-6.708 2-2.691-0.73-4.298 2-7.03-2.98-2.049 3.13-0.918 3.48-3.169-6-21.164-9.38-6.542 1.07-5.636-3.7 1.756 5.61-1.458 6.57-3.386 4.49 3.013 9.47 2.532 0.96-10.224 13.34-6.092-0.17-4.0029-1.13-1.2716 2.56-7.0561-2.89 0.7516-12.84 6.054-16.7-0.1036-15.24 2.7886-3.52 4.074-14.92 9.249-3.98-5.916-11.214 1.84-6.202 0.073-16.323-2.624-2.658-0.428-2.935-4.927-3.577-6.8018-7.959-4.7127-1.051 1.8863-2.979-1.1667-6.03 3.1717-2.497 0.2795-2.175 2.6795-0.254 3.9652 0.55 2.197-3.306 3.483 0.068 7.26-7.408 0.511-3.712-1.9-2.268 2.118-0.339 0.672-2.428-1.739-1.946 2.921-0.179-0.709-4.346-2.523-0.326 0.369-2.253 8.976-11.085 3.354-0.80423 19.573 9.7332-2.923 1.219 0.292 2.022 2.862 2.344-1.348 1.935 3.311 1.774-0.223 2.577 1.865-0.474 1.355 2.116 10.193 10.309-1.537 1.796 1.998 1.474 1.676-0.614 2.32 0.35 0.23 2.438 4.457 3.209 8.263 5.438 4.262 5.892 15.521 9.772 72.39 38.556 36.77 20.09 8.56 4.32 38.02 21.82 3.55-0.89 10.26 4.86 4.03-2.76 0.9 0.67 0.18 2.67 7.34 3.62-2.19 4.75z"/>
 </g>
 <path id="path-9" d="m288.69 161.37l-1.82-0.86-4.63 9.7 2.02 0.24-1.38 2.36 1.43 1.72-3.24 3.18-4.57 0.75-0.35 13.93 0.16 2.89-1.3 2.41 5.15 4.3-1.57 6.1 0.94 2.49-4.58 6.03 2.15 10.09-1.88 5.99-7.79 12.66-3.78 6.76-0.02 4.66 0.15 2.48 6.21-3.33 2.64 0.82 6.6 0.02 2.41 6.46-0.27 4.09 4.18 0.28-0.02 7.82 3.92 1.08-4.27 6.54-4.11 3.33-5.55 6.21 1.48 1.18-8.8 7.43-7.04-3.16-4.14 9.53-3.02-6.11-7.04-13.65-2.06 4.5-2.22-0.65 0.02-3.69-2.38-0.64-2.06-5.78-1.57 1.6-4.41-0.16-6.02 8.03-2.7-1.29-6.06 11.4-5.43-6.93-3.34 2.22-3.33-2.12-6.55 2.86-7.23-11.12-3.15 4.72 1.03 1.84-1.86 0.54-2.02-2.66-1.06 1.83 0.22 8.9 2.45 3.64-1.97 0.91-2.11 10.36 0.49 5.28-2.23-4.03-6.73 0.79-6.32-5.56-5.69-1.39-4.13 2.37-3.48-3.41-5.42-2.78-2.85 0.76-1.72 3.5-1.24-2.62 2.84-7.5-1.99-2.37-0.28-4.89-1.89-5.05 0.61-5.88-3.4-3.16 4.46 0.07-3.24-8.78 1.49-3.6-1.73-2.97 0.68-4.25-4.94-1.04-0.76-5.29-2.06-2.09 3.94-6.41-3.39-4.64 3.36-1.43 1.44-4.48-1.99-4.59-2.15 1.02-2.8-3.47-4.88-5.09-2.7-12.57-6.01 1.51-6.33-3.47 0.46-3.3-5-5.86-2.12-9.88-2.43 0.73 7.34-9.44 3.03-9.06 2.38-1.02-5.81-2.11-3.73 1.43-2.27-0.5-4.371 2.39-3.068-4.91-2.587 1.04-3.566-4.04-1.156-4.52 3.664-5.8 4.328-6.86-4.459-5.71-1.566-0.41-3.174 4.73-6.708 2-2.691-0.73-4.298 2-7.03-2.98-2.049 3.13-0.918 3.48-3.169-6-21.164-9.38-6.542 1.07-5.636-3.7 1.756 5.61-1.458 6.57-3.386 4.49 3.013 9.47 2.532 0.96-10.224 13.34-6.092-0.17-4.0029-1.13-1.2716 2.56-7.0561-2.89 0.7516-12.84 6.054-16.7-0.1036-15.24 2.7886-3.52 4.074-14.92 9.249-3.98-5.916-11.214 1.84-6.202 0.073-16.323-2.624-2.658-0.428-2.935-4.927-3.577-6.8018-7.959-4.7127-1.051 1.8863-2.979-1.1667-6.03 3.1717-2.497 0.2795-2.175 2.6795-0.254 3.9652 0.55 2.197-3.306 3.483 0.068 7.26-7.408 0.511-3.712-1.9-2.268 2.118-0.339 0.672-2.428-1.739-1.946 2.921-0.179-0.709-4.346-2.523-0.326 0.369-2.253 8.976-11.085 3.354-0.80423 19.573 9.7332-2.923 1.219 0.292 2.022 2.862 2.344-1.348 1.935 3.311 1.774-0.223 2.577 1.865-0.474 1.355 2.116 10.193 10.309-1.537 1.796 1.998 1.474 1.676-0.614 2.32 0.35 0.23 2.438 4.457 3.209 8.263 5.438 4.262 5.892 15.521 9.772 72.39 38.556 36.77 20.09 8.56 4.32 38.02 21.82 3.55-0.89 10.26 4.86 4.03-2.76 0.9 0.67 0.18 2.67 7.34 3.62-2.19 4.75z"/>
</g>
<g id="pathEminonu" transform="translate(453 350)">
  <g id="path-10-link" stroke="#000" fill="url(#linearGradient-10)">
   <path id="path-10" d="m0.88105 7.1345l0.54445 4.3195-0.94657 2.186 4.808-0.131 1.4592-0.609 6.2169 1.097 3.744-2.861 1.216-3.7186-1.071-4.0696-2.516 1.417-3.419-0.9037-5.7537-3.4254-4.2822 6.6988h-0.00005z"/>
 </g>
 <path id="path-10" d="m0.88105 7.1345l0.54445 4.3195-0.94657 2.186 4.808-0.131 1.4592-0.609 6.2169 1.097 3.744-2.861 1.216-3.7186-1.071-4.0696-2.516 1.417-3.419-0.9037-5.7537-3.4254-4.2822 6.6988h-0.00005z"/>
</g>
<g id="pathEsenler" transform="translate(388 279)">
  <g id="path-11-link" stroke="#000" fill="url(#linearGradient-11)">
   <path id="path-11" d="m6.8842 3.434l-1.6008-3.111 6.9026 1.5619 2.713 4.0519 2.054 6.5512-0.883 1.592 1.616 1.222 6.164 12.036 4.022 2.929 1.34 2.826-0.229 2.547 5.377 9.477 0.646 3.359-0.007 3.864-1.466 3.562 2.173 4.268 3.261 2.153 2.155 4.57 0.429 5.841-6.134 0.525-1.024-2.957 2.638-4.174-2.792-2.893-3.983 1.446-2.215-4.276-0.039-0.076v0.064l-4.405-1.204-0.897-2.919 0.589-1.434-2.535-5.274 0.012-4.699 2.498-4.942-2.101-0.678-3.086 3.648-0.346 1.575-2.484 1.357-1.729-1.19 0.192-1.588-8.8236-2.752-1.1717 2.853-1.7153-0.817 2.0674-6.095-3.7651-17.335 2.8814-3.687 3.7011-11.778z"/>
 </g>
 <path id="path-11" d="m6.8842 3.434l-1.6008-3.111 6.9026 1.5619 2.713 4.0519 2.054 6.5512-0.883 1.592 1.616 1.222 6.164 12.036 4.022 2.929 1.34 2.826-0.229 2.547 5.377 9.477 0.646 3.359-0.007 3.864-1.466 3.562 2.173 4.268 3.261 2.153 2.155 4.57 0.429 5.841-6.134 0.525-1.024-2.957 2.638-4.174-2.792-2.893-3.983 1.446-2.215-4.276-0.039-0.076v0.064l-4.405-1.204-0.897-2.919 0.589-1.434-2.535-5.274 0.012-4.699 2.498-4.942-2.101-0.678-3.086 3.648-0.346 1.575-2.484 1.357-1.729-1.19 0.192-1.588-8.8236-2.752-1.1717 2.853-1.7153-0.817 2.0674-6.095-3.7651-17.335 2.8814-3.687 3.7011-11.778z"/>
</g>
<g id="pathEyup" transform="translate(372 175)">
  <g id="path-12-link" stroke="#000" fill="url(#linearGradient-12)" transform="translate(0)">
   <path id="path-12" d="m78.842 27.295l4.091 1.372-3.97 4.212-4.457 14.633 5.699 6.197 3.727 0.499 0.243 2.97-2.728 6.952 0.986 5.454 1.985 1.485-1.242 20.343 2.741 0.243 0.743 1.729h5.199l1.985 2.24 0.756 2.484-0.039 0.013-3.176 4.959-2.497 4.99-2.216 3.15 1.114 5.85-2.1 3.37-0.051 0.02-0.871 2.42 1.524 2.22-2.702 2.47 6.698 6.23-2.626 3.93 0.538 3.06-3.163 2.36-3.634 4.42-4.441-0.84-1.54 3.42 0.549 2.78-2.919 1.87-0.349 7.49 2.544 3.96 2.901-2.71-1.659 4.85-5.628 5.84-6.388-11.84 2.295-0.43-3.766-5.11 11.242-4.58-0.2-3.13-3.275-3.69-2.196 2.25-4.4-3.69 2.122-1.08-1.252-3.18 3.819-8.08-1.017-1.95 0.706-11.46-4.025-1-13.55-19.186-3.542 2.756-5.367 0.79-8.644-0.98-5.208 5.26-6.906-1.56-1.944-2.58 1.242-0.66-1.123-20.834 2.103 0.004 0.869-4.843-1.241-1.485-0.854-9.424 2.224-3.717-1.987-1.86-2.156-4.738-6.198-3.718 0.248-2.975-4.4711-4.96-0.7447-7.69-2.4797-5.454-2.971-0.735-1.7365-7.449 2.7292 0.994 5.4564-21.327 4.9614 1.9174 5.83-2.0454 3.927 3.6378 0.374 2.7411 2.538 1.2275 0.852-3.2139 0.673 0.6711 0.179 2.2206 2.332 3.3818 14.858 4.079 1.131-0.86 1.733-0.53 0.658 1.39-1.378 1.901 1.199 1.259 6.078 0.918 8.826 3.005 7.612-0.375 6.075 3.355 2.113 1.726zm25.098 128.34l-0.03 0.03 0.03-0.03z"/>
 </g>
 <path id="path-12" d="m78.842 27.295l4.091 1.372-3.97 4.212-4.457 14.633 5.699 6.197 3.727 0.499 0.243 2.97-2.728 6.952 0.986 5.454 1.985 1.485-1.242 20.343 2.741 0.243 0.743 1.729h5.199l1.985 2.24 0.756 2.484-0.039 0.013-3.176 4.959-2.497 4.99-2.216 3.15 1.114 5.85-2.1 3.37-0.051 0.02-0.871 2.42 1.524 2.22-2.702 2.47 6.698 6.23-2.626 3.93 0.538 3.06-3.163 2.36-3.634 4.42-4.441-0.84-1.54 3.42 0.549 2.78-2.919 1.87-0.349 7.49 2.544 3.96 2.901-2.71-1.659 4.85-5.628 5.84-6.388-11.84 2.295-0.43-3.766-5.11 11.242-4.58-0.2-3.13-3.275-3.69-2.196 2.25-4.4-3.69 2.122-1.08-1.252-3.18 3.819-8.08-1.017-1.95 0.706-11.46-4.025-1-13.55-19.186-3.542 2.756-5.367 0.79-8.644-0.98-5.208 5.26-6.906-1.56-1.944-2.58 1.242-0.66-1.123-20.834 2.103 0.004 0.869-4.843-1.241-1.485-0.854-9.424 2.224-3.717-1.987-1.86-2.156-4.738-6.198-3.718 0.248-2.975-4.4711-4.96-0.7447-7.69-2.4797-5.454-2.971-0.735-1.7365-7.449 2.7292 0.994 5.4564-21.327 4.9614 1.9174 5.83-2.0454 3.927 3.6378 0.374 2.7411 2.538 1.2275 0.852-3.2139 0.673 0.6711 0.179 2.2206 2.332 3.3818 14.858 4.079 1.131-0.86 1.733-0.53 0.658 1.39-1.378 1.901 1.199 1.259 6.078 0.918 8.826 3.005 7.612-0.375 6.075 3.355 2.113 1.726zm25.098 128.34l-0.03 0.03 0.03-0.03z"/>
</g>
<g id="pathFatih" transform="translate(438 338)">
  <g id="path-13-link" stroke="#000" fill="url(#linearGradient-13)">
   <path id="path-13" d="m15.836 19.102l0.545 4.32-0.947 2.186-4.309 1.138-1.7127-0.809-2.1558 0.709-0.6433 2.044-3.446 4.197-2.7494-0.157 0.9637-17.589 3.277-3.676 5.8765-6.059 1.584-4.4506 2.239 4.9136 0.406 1.496 1.121 0.5083 0.67 1.1407 3.563 3.39-4.282 6.698z"/>
 </g>
 <path id="path-13" d="m15.836 19.102l0.545 4.32-0.947 2.186-4.309 1.138-1.7127-0.809-2.1558 0.709-0.6433 2.044-3.446 4.197-2.7494-0.157 0.9637-17.589 3.277-3.676 5.8765-6.059 1.584-4.4506 2.239 4.9136 0.406 1.496 1.121 0.5083 0.67 1.1407 3.563 3.39-4.282 6.698z"/>
</g>
<g id="pathGaziosmanpasa" transform="translate(313 156)">
  <g id="path-14-link" stroke="#000" fill="url(#linearGradient-14)">
   <path id="path-14" d="m66.865 17.302l0.497 2.636-5.455 21.329-2.728-0.999 1.729 7.451 2.971 0.73 2.484 5.454 0.743 7.694 4.469 4.955-0.243 2.983 6.198 3.713 2.152 4.737 1.985 1.856-2.216 3.725 0.846 9.423 1.242 1.485-0.871 4.84h-2.1l1.127 20.826-1.243 0.66 1.947 2.58-3.987 0.51-9.664-8.08-4.013-0.37-3.863 5.55-3.349 1.35-4.652 4.21-15.88-3.93-2.57 2.26-0.666-2.02 1.291-1.35-6.013-1.14-4.482-0.86 0.028-7.82-4.195-0.29 0.271-4.07-2.412-6.47-6.5905-0.02-2.6374-0.81-6.2135 3.33-0.15097-2.49 0.02791-4.659 3.7702-6.754 7.7973-12.662 1.876-5.999-2.151-10.086 4.589-6.029-0.955-2.482 1.578-6.108-5.145-4.298 1.295-2.409-0.162-2.9 0.346-13.928 4.571-0.737 3.246-3.193-1.431-1.709 1.383-2.362-2.029-0.247 4.633-9.6973 1.828 0.8577 2.187-4.7527 12.653 5.9339 1.639-1.7733 5.469 2.0602 5.959 4.1225 2.464-0.321 0.537 1.349 8.794 3.179 1.445 2.036z"/>
 </g>
 <path id="path-14" d="m66.865 17.302l0.497 2.636-5.455 21.329-2.728-0.999 1.729 7.451 2.971 0.73 2.484 5.454 0.743 7.694 4.469 4.955-0.243 2.983 6.198 3.713 2.152 4.737 1.985 1.856-2.216 3.725 0.846 9.423 1.242 1.485-0.871 4.84h-2.1l1.127 20.826-1.243 0.66 1.947 2.58-3.987 0.51-9.664-8.08-4.013-0.37-3.863 5.55-3.349 1.35-4.652 4.21-15.88-3.93-2.57 2.26-0.666-2.02 1.291-1.35-6.013-1.14-4.482-0.86 0.028-7.82-4.195-0.29 0.271-4.07-2.412-6.47-6.5905-0.02-2.6374-0.81-6.2135 3.33-0.15097-2.49 0.02791-4.659 3.7702-6.754 7.7973-12.662 1.876-5.999-2.151-10.086 4.589-6.029-0.955-2.482 1.578-6.108-5.145-4.298 1.295-2.409-0.162-2.9 0.346-13.928 4.571-0.737 3.246-3.193-1.431-1.709 1.383-2.362-2.029-0.247 4.633-9.6973 1.828 0.8577 2.187-4.7527 12.653 5.9339 1.639-1.7733 5.469 2.0602 5.959 4.1225 2.464-0.321 0.537 1.349 8.794 3.179 1.445 2.036z"/>
</g>
<g id="pathGaziosmanpasa2" transform="translate(400 273)">
  <g id="path-15-link" stroke="#000" fill="url(#linearGradient-15)">
   <path id="path-15" d="m40.613 72.437l-1.857 2.023-3.317-3.79-6.339 2.151-2.139-4.532-3.265-2.151-2.177-4.263 1.472-3.572v-3.854l-0.64-3.367-5.379-9.474 0.231-2.547-1.345-2.83-4.021-2.919-6.16-12.047-1.6136-1.216 0.8837-1.588-2.0619-6.555-2.6893-4.0324 5.2122-5.2619 8.6439 0.973 5.366-0.7938 3.548-2.7525 13.549 19.191 4.021 0.999-0.704 11.458 1.012 1.959-3.817 8.078 1.255 3.176-2.126 1.088 4.406 3.687 2.19-2.253 3.278 3.687 0.205 3.136-11.244 4.571 3.765 5.121-2.292 0.422 4.149 8.079z"/>
 </g>
 <path id="path-15" d="m40.613 72.437l-1.857 2.023-3.317-3.79-6.339 2.151-2.139-4.532-3.265-2.151-2.177-4.263 1.472-3.572v-3.854l-0.64-3.367-5.379-9.474 0.231-2.547-1.345-2.83-4.021-2.919-6.16-12.047-1.6136-1.216 0.8837-1.588-2.0619-6.555-2.6893-4.0324 5.2122-5.2619 8.6439 0.973 5.366-0.7938 3.548-2.7525 13.549 19.191 4.021 0.999-0.704 11.458 1.012 1.959-3.817 8.078 1.255 3.176-2.126 1.088 4.406 3.687 2.19-2.253 3.278 3.687 0.205 3.136-11.244 4.571 3.765 5.121-2.292 0.422 4.149 8.079z"/>
</g>
<g id="pathGungoren" transform="translate(410 339)">
  <g id="path-16-link" stroke="#000" fill="url(#linearGradient-16)">
   <path id="path-16" d="m15.046 6.1423l-2.636 4.1717 1.022 2.953 6.138-0.524-1.798 6.311-2.391 3.518 0.038-0.013-3.855-0.563-1.037-8.13-3.4192 5.979-1.2423-0.115-4.7127-6.517 0.7684-2.304-1.8058-3.6362 1.8058-1.7668 2.6381 0.1792 2.049 1.5876-0.5891-6.9262 2.2596 4.3493 3.9762-1.4424 2.791 2.8888z"/>
 </g>
 <path id="path-16" d="m15.046 6.1423l-2.636 4.1717 1.022 2.953 6.138-0.524-1.798 6.311-2.391 3.518 0.038-0.013-3.855-0.563-1.037-8.13-3.4192 5.979-1.2423-0.115-4.7127-6.517 0.7684-2.304-1.8058-3.6362 1.8058-1.7668 2.6381 0.1792 2.049 1.5876-0.5891-6.9262 2.2596 4.3493 3.9762-1.4424 2.791 2.8888z"/>
</g>
<g id="pathKagithane" transform="translate(453 295)">
  <g id="path-17-link" stroke="#000" fill="url(#linearGradient-17)">
   <path id="path-17" d="m5.7213 36.499l0.7764-3.435 4.1073-4.794 3.623-1.857 1.258 0.594 3.528-2.297-0.181-2.71 4.689 1.741 3.575-0.579-1.506-4.899 1.632-0.616-0.884-5.815-0.427-3.1083-2.358-1.3426-1.724 1.38-2.025-0.6589-2.631 0.7389-1.123-4.4015-5.643-0.0198-5.8437-4.0104-0.8822 2.4228 1.5237 2.2121-2.6965 2.4674 6.7029 6.2333-2.6268 3.935 0.5305 3.058-3.153 2.357-3.1405 5.654-0.45427 1.73 2.1937 2.825 0.7904 2.65 2.3691 0.545z"/>
 </g>
 <path id="path-17" d="m5.7213 36.499l0.7764-3.435 4.1073-4.794 3.623-1.857 1.258 0.594 3.528-2.297-0.181-2.71 4.689 1.741 3.575-0.579-1.506-4.899 1.632-0.616-0.884-5.815-0.427-3.1083-2.358-1.3426-1.724 1.38-2.025-0.6589-2.631 0.7389-1.123-4.4015-5.643-0.0198-5.8437-4.0104-0.8822 2.4228 1.5237 2.2121-2.6965 2.4674 6.7029 6.2333-2.6268 3.935 0.5305 3.058-3.153 2.357-3.1405 5.654-0.45427 1.73 2.1937 2.825 0.7904 2.65 2.3691 0.545z"/>
</g>
<g id="pathKucukcekmece" transform="translate(318 271)">
  <g id="path-18-link" stroke="#000" fill="url(#linearGradient-18)">
   <path id="path-18" d="m52.135 102.46l-2.534-0.45-2.37 1.72-3.899-0.94 7.736-4.284-2.14-2.371 0.105-1.552-1.623-1.902 5.267-3.996 0.125-2.949-2.213-1.233-2.633-0.081-4.832-1.184 1.105-1.825-1.854-7.933 1.427-7.048-3.117-3.539-0.376-8.021-3.185-0.162 1.306-2.496-5.519-1.524-1.345-2.893-5.763-7.387-4.085-3.201 0.346-1.293-3.919-6.824-3.509-3.29 1.293 5.467-0.294 4.519 0.013 0.064-1.524 2.97-2.024-0.845-1.37 3.815-5.4043-9.038-1.2422 1.165-3.9956-3.649 0.0512-0.051 8.8109-7.438-1.4856-1.165 5.5576-6.222 4.111-3.329 4.265-6.5422 0.576-0.1152 6.019 1.1394-1.293 1.3443 0.666 2.0228 2.574-2.2533 15.88 3.9172 4.649-4.1988 3.355-1.3571 3.855-5.5563 4.021 0.38406 9.656 8.0784 3.996-0.5121 1.545 3.0258-3.698 11.778-2.881 3.694 3.763 17.328-2.045 6.064-1.167 2.946-2.766 9.767 2.032 5.854-0.384 5.865-0.896 0.142-1.202 6.655 2.661 10.803-2.645-0.956-2.49 0.073-2.05 1.866 2.567 8.069-4.346-2.699-3.873 2.019-4.982-0.909-0.36 2.659z"/>
 </g>
 <path id="path-18" d="m52.135 102.46l-2.534-0.45-2.37 1.72-3.899-0.94 7.736-4.284-2.14-2.371 0.105-1.552-1.623-1.902 5.267-3.996 0.125-2.949-2.213-1.233-2.633-0.081-4.832-1.184 1.105-1.825-1.854-7.933 1.427-7.048-3.117-3.539-0.376-8.021-3.185-0.162 1.306-2.496-5.519-1.524-1.345-2.893-5.763-7.387-4.085-3.201 0.346-1.293-3.919-6.824-3.509-3.29 1.293 5.467-0.294 4.519 0.013 0.064-1.524 2.97-2.024-0.845-1.37 3.815-5.4043-9.038-1.2422 1.165-3.9956-3.649 0.0512-0.051 8.8109-7.438-1.4856-1.165 5.5576-6.222 4.111-3.329 4.265-6.5422 0.576-0.1152 6.019 1.1394-1.293 1.3443 0.666 2.0228 2.574-2.2533 15.88 3.9172 4.649-4.1988 3.355-1.3571 3.855-5.5563 4.021 0.38406 9.656 8.0784 3.996-0.5121 1.545 3.0258-3.698 11.778-2.881 3.694 3.763 17.328-2.045 6.064-1.167 2.946-2.766 9.767 2.032 5.854-0.384 5.865-0.896 0.142-1.202 6.655 2.661 10.803-2.645-0.956-2.49 0.073-2.05 1.866 2.567 8.069-4.346-2.699-3.873 2.019-4.982-0.909-0.36 2.659z"/>
</g>
<g id="pathSariyer" transform="translate(446 203)">
  <g id="path-19-link" stroke="#000" fill="url(#linearGradient-19)" transform="translate(0)">
   <path id="path-19" d="m4.8887 4.8291l-4.4651 14.631 5.7054 6.2 3.721 0.496 0.248 2.976-2.7286 6.944 0.9922 5.455 1.9844 1.488-1.2402 20.335 2.7292 0.248 0.744 1.736h5.209l1.985 2.232 0.744 2.48 7.442 0.248 0.248 0.992 0.992 0.248-0.496 3.224 5.457 1.736 2.977-4.464 2.233-1.24 3.224 5.208 0.249 18.599-5.21 1.488 2.481 4.461 3.225 0.99 2.728-0.99-0.496 4.71 4.465 0.75v3.72l6.946 1.73 0.496-5.45-1.984-4.71 2.977-6.699-1.985-3.224 3.969 1.24 3.721-4.464v-4.216l-4.713-5.455-3.969-6.696-7.938-6.2 18.108-11.159 0.249-4.96 12.651-13.391h1.488l3.473-4.96-2.481-3.72 4.218-6.2-2.233-5.207-15.132-9.424-2.729 2.4799-9.674-4.2158-3.721 1.7359-1.737-2.4799-2.48 6.6959-9.179 0.744-15.38-4.712-7.442-1.2399-1.24-3.7199-2.232-1.4879-3.2252 0.24801-3.9691 4.2158z"/>
 </g>
 <path id="path-19" d="m4.8887 4.8291l-4.4651 14.631 5.7054 6.2 3.721 0.496 0.248 2.976-2.7286 6.944 0.9922 5.455 1.9844 1.488-1.2402 20.335 2.7292 0.248 0.744 1.736h5.209l1.985 2.232 0.744 2.48 7.442 0.248 0.248 0.992 0.992 0.248-0.496 3.224 5.457 1.736 2.977-4.464 2.233-1.24 3.224 5.208 0.249 18.599-5.21 1.488 2.481 4.461 3.225 0.99 2.728-0.99-0.496 4.71 4.465 0.75v3.72l6.946 1.73 0.496-5.45-1.984-4.71 2.977-6.699-1.985-3.224 3.969 1.24 3.721-4.464v-4.216l-4.713-5.455-3.969-6.696-7.938-6.2 18.108-11.159 0.249-4.96 12.651-13.391h1.488l3.473-4.96-2.481-3.72 4.218-6.2-2.233-5.207-15.132-9.424-2.729 2.4799-9.674-4.2158-3.721 1.7359-1.737-2.4799-2.48 6.6959-9.179 0.744-15.38-4.712-7.442-1.2399-1.24-3.7199-2.232-1.4879-3.2252 0.24801-3.9691 4.2158z"/>
</g>
<g id="pathSılıvri" transform="translate(0 134)">
  <g id="path-20-link" stroke="#000" fill="url(#linearGradient-20)" transform="translate(0)">
   <path id="path-20" d="m26.021 196.15l6.624-0.75 12.408-8.31 24.459-1.55 2.285-3.33 26.541-4.5 12.562 2.41 6.3-5.14 8.38 2.89 0.99 2.74 2.76 0.96 2.92 3.05 8.55 0.81 1.7-1.13 15.36 4.5 10.78 0.48 1.5-1.13 6.62 3.5 5.82 1.1 1.32-0.68 9.84 3.03 1.77-0.2 24.65 10.83 3.28-7.01 2 0.23 4.08-4.11 3.76 6.17 2.32-0.26 1.96-6.79-1.96-1.19-0.19-2.33-1.76-3.07-2.23-4.03-6.73 0.79-6.32-5.56-5.68-1.39-4.14 2.37-3.48-3.41-5.42-2.78-2.85 0.77-1.72 3.49-1.24-2.61 2.84-7.51-1.99-2.37-0.28-4.89-1.89-5.05 0.61-5.88-3.4-3.15 4.47 0.06-3.25-8.77 1.49-3.61-1.73-2.97 0.68-4.25-4.94-1.03-0.76-5.3-2.06-2.08 3.94-6.42-3.39-4.64 3.36-1.43 1.44-4.47-1.99-4.602-2.15 1.023-2.8-3.474-4.88-5.081-2.7-12.57-6.01 1.505-6.33-3.474 0.46-3.293-5-5.862-2.11-9.879-2.44 0.724 7.34-9.436 3.03-9.055 2.38-1.024-5.81-2.106-3.73 1.428-2.27-0.5-4.37 2.391-3.07-4.91-2.59 1.034-3.56-4.037-1.16-4.518 3.67-5.803 4.32-6.864-4.45-5.7088-1.57-0.4084-3.17 4.7322-6.71 2.001-2.69-0.73-4.3 2.001-7.03-2.978-2.05 3.125-0.92 3.477-3.17-6-21.161-9.3729-6.543 1.0678-5.635-3.7057 1.755 5.6108-1.457 6.575-3.386 4.486 3.013 9.475 2.531 0.961-10.223 13.336-6.092-0.167-4.003-1.131-1.272 2.563-7.056-2.898-0.212 6.434-5.194 5.791-4.281 6.282-4.281 0.98-10.709 7.567-4.569 1.481-6.88 5.817-1.695 6.969 0.023 5.066 3.559 4.424 6.129 12.131 0.666 7 0.987 2.81-4.476 7.64-0.298 2.18-13.152 0.24-3.1905 5.39 0.2143 5.02-2.7035 12.86-0.88572 7.42 1.1594 2.42-1.5673 4.23 2.7501 0.83-1.7946 6.96 2.2956 3.1-2.0218 1.51-0.2039 2.42 2.9773 0.15 0.9322 2.42-4.0669 4.23 3.2045-0.08 2.2957-2.35 5.0221 1.51 4.568-6.22 2.296 2.2-8.384 9.23 4.795 1.74-0.431 2.64 2.068 0.6-3.511 6.78 3.244-0.48-1.755 4.98 11.476-5.35z"/>
 </g>
 <path id="path-20" d="m32.645 195.4l12.408-8.31 24.459-1.55 2.285-3.33 26.541-4.5 12.562 2.41 6.3-5.14 8.38 2.89 0.99 2.74 2.76 0.96 2.92 3.05 8.55 0.81 1.7-1.13 15.36 4.5 10.78 0.48 1.5-1.13 6.62 3.5 5.82 1.1 1.32-0.68 9.84 3.03 1.77-0.2 24.65 10.83 3.28-7.01 2 0.23 4.08-4.11 3.76 6.17 2.32-0.26 1.96-6.79-1.96-1.19-0.19-2.33-1.76-3.07-2.23-4.03-6.73 0.79-6.32-5.56-5.68-1.39-4.14 2.37-3.48-3.41-5.42-2.78-2.85 0.77-1.72 3.49-1.24-2.61 2.84-7.51-1.99-2.37-0.28-4.89-1.89-5.05 0.61-5.88-3.4-3.15 4.47 0.06-3.25-8.77 1.49-3.61-1.73-2.97 0.68-4.25-4.94-1.03-0.76-5.3-2.06-2.08 3.94-6.42-3.39-4.64 3.36-1.43 1.44-4.47-1.99-4.602-2.15 1.023-2.8-3.474-4.88-5.081-2.7-12.57-6.01 1.505-6.33-3.474 0.46-3.293-5-5.862-2.11-9.879-2.44 0.724 7.34-9.436 3.03-9.055 2.38-1.024-5.81-2.106-3.73 1.428-2.27-0.5-4.37 2.391-3.07-4.91-2.59 1.034-3.56-4.037-1.16-4.518 3.67-5.803 4.32-6.864-4.45-5.7088-1.57-0.4084-3.17 4.7322-6.71 2.001-2.69-0.73-4.3 2.001-7.03-2.978-2.05 3.125-0.92 3.477-3.17-6-21.161-9.3729-6.543 1.0678-5.635-3.7057 1.755 5.6108-1.457 6.575-3.386 4.486 3.013 9.475 2.531 0.961-10.223 13.336-6.092-0.167-4.003-1.131-1.272 2.563-7.056-2.898-0.212 6.434-5.194 5.791-4.281 6.282-4.281 0.98-10.709 7.567-4.569 1.481-6.88 5.817-1.695 6.969 0.023 5.066 3.559 4.424 6.129 12.131 0.666 7 0.987 2.81-4.476 7.64-0.298 2.18-13.152 0.24-3.1905 5.39 0.2143 5.02-2.7035 12.86-0.88572 7.42 1.1594 2.42-1.5673 4.23 2.7501 0.83-1.7946 6.96 2.2956 3.1-2.0218 1.51-0.2039 2.42 2.9773 0.15 0.9322 2.42-4.0669 4.23 3.2045-0.08 2.2957-2.35 5.0221 1.51 4.568-6.22 2.296 2.2-8.384 9.23 4.795 1.74-0.431 2.64 2.068 0.6-3.511 6.78 3.244-0.48-1.755 4.98 11.476-5.35 6.624-0.75z"/>
</g>
<g id="pathSisli1" transform="translate(457 273)">
  <g id="path-21-link" stroke="#000" fill="url(#linearGradient-21)">
   <path id="path-21" d="m9.4813 0.075363l7.4417 0.24798 0.248 0.99196 0.993 0.248-0.497 3.2239 5.458 1.7359 2.977-4.4638 2.232-1.24 3.225 5.2078 0.248 18.599-5.209 1.488-4.217 7.688-0.427-3.109-2.358-1.343-1.724 1.38-2.025-0.658-2.631 0.738-1.123-4.401-5.6432-0.02-5.8435-4.01 2.0998-3.364-1.1075-5.854 2.2149-3.144 2.4931-4.9901 3.1747-4.9515v-0.000037z"/>
 </g>
 <path id="path-21" d="m9.4813 0.075363l7.4417 0.24798 0.248 0.99196 0.993 0.248-0.497 3.2239 5.458 1.7359 2.977-4.4638 2.232-1.24 3.225 5.2078 0.248 18.599-5.209 1.488-4.217 7.688-0.427-3.109-2.358-1.343-1.724 1.38-2.025-0.658-2.631 0.738-1.123-4.401-5.6432-0.02-5.8435-4.01 2.0998-3.364-1.1075-5.854 2.2149-3.144 2.4931-4.9901 3.1747-4.9515v-0.000037z"/>
</g>
<g id="pathSisli2" transform="translate(458 312)">
  <g id="path-22-link" stroke="#000" fill="url(#linearGradient-22)">
   <path id="path-22" d="m0.75422 19.544l0.77638-3.435 4.1071-4.795 3.6234-1.8559 1.2579 0.5939 3.528-2.2976-0.181-2.7102 4.689 1.7411 3.575-0.579-1.506-4.8983 1.632-0.61634 3.852 8.2137-2.006 5.4836-1.568-2.395-2.426 0.065-0.885 2.322v2.668l-1.386 1.561 1.987 2.873-2.072 0.812-1.058 5.404-1.546-0.506-0.24 1.328-5.3129-1.396-2.1006-2.553-1.5744-0.448-1.3112 1.392-1.2268-1.12 0.0011-1.384-2.1915-2.085-0.43748-1.383z"/>
 </g>
 <path id="path-22" d="m0.75422 19.544l0.77638-3.435 4.1071-4.795 3.6234-1.8559 1.2579 0.5939 3.528-2.2976-0.181-2.7102 4.689 1.7411 3.575-0.579-1.506-4.8983 1.632-0.61634 3.852 8.2137-2.006 5.4836-1.568-2.395-2.426 0.065-0.885 2.322v2.668l-1.386 1.561 1.987 2.873-2.072 0.812-1.058 5.404-1.546-0.506-0.24 1.328-5.3129-1.396-2.1006-2.553-1.5744-0.448-1.3112 1.392-1.2268-1.12 0.0011-1.384-2.1915-2.085-0.43748-1.383z"/>
</g>
<g id="pathZeytinburnu" transform="translate(425 343)">
  <g id="path-23-link" stroke="#000" fill="url(#linearGradient-23)">
   <path id="path-23" d="m14.395 10.06l3.288-3.7605-2.057-3.8315-1.859 2.0272-3.322-3.7925-6.3649 2.1611 0.4355 5.838 0.0128 0.0128-1.7929 6.3114-2.4848 3.645 0.58283 3.758-0.58254 9.637 3.7617 1.048 4.4574-1.821 1.6439-2.186 3.256-1.467 1.025-17.58z"/>
 </g>
 <path id="path-23" d="m14.395 10.06l3.288-3.7605-2.057-3.8315-1.859 2.0272-3.322-3.7925-6.3649 2.1611 0.4355 5.838 0.0128 0.0128-1.7929 6.3114-2.4848 3.645 0.58283 3.758-0.58254 9.637 3.7617 1.048 4.4574-1.821 1.6439-2.186 3.256-1.467 1.025-17.58z"/>
</g>
</g>
<g id="gAsyaYakasi" transform="translate(500.13 225.99)">
 <g id="pathBeykoz" transform="translate(27)">
  <g id="path-24-link" stroke="#000" fill="url(#linearGradient-24)">
   <path id="path-24" d="m26.786 21.622l0.454 7.269-3.408 3.18h-2.5l-0.682 1.136-9.089 1.136 0.909 5.452-5.4536 2.044-1.8179 3.408 2.9541 5.679-3.6358 5.906 4.0902 2.726 4.999 2.272 3.181 7.269-1.136 3.862-4.999 1.136-1.8177 4.089-4.9992 0.908-3.1813 3.635 1.5907 6.361-1.477 7.837 2.7836 2.101 3.3517 4.772 3.5222 1.25 2.954-1.19 3.181 0.68-1.136 0.91 0.227 1.36 1.818 0.23 3.636-0.23 6.135 5.68-0.227 13.63 4.431 1.36 4.204-4.32-1.25-3.74 2.386-1.93v-2.28l7.499-2.27 5.226-2.95 1.364 1.13 10.225-0.45 1.591 1.14 2.727-2.05 2.045 0.23 1.136-2.05-3.181-4.31-0.682-4.772 3.181-9.995 6.59-3.181-0.454-4.997 3.863-2.045 1.59-2.726 0.909 3.635 2.045 2.271 1.591-1.135 1.136 0.681 1.818-0.681v-3.408l1.818-1.59-0.909-1.59 12.043-3.635 2.275 0.909 0.91-7.724 9.09 3.862 4.09 0.454 3.18-2.726 4.31 2.954 3.87-0.455 4.32-1.817h1.59l1.59 3.18 3.18-1.136 1.82-4.77-0.91-4.771-4.09-1.363 1.13-3.18-2.72-2.953-2.05 1.136-0.23-1.59-2.27-4.089-0.68 1.363h-2.95l-1.6 0.908v-2.498l-2.27-4.544-0.68-4.77 1.14-1.59-2.5-2.499 0.68-4.089v-2.726l5.23-5.452-1.37-4.543 2.73-2.726-7.73-1.363-12.72-3.4078-5.91-3.1803-5.454-1.8173-4.317-0.2271 0.227-2.9532-4.999 2.4988-1.591 2.0445h-10.225l-0.228-1.5901-2.499 0.2271 0.909 3.1803-2.727 2.2717-9.544 1.1354-7.499-1.8169-4.544-1.363-0.455 4.5429-5.681-1.363 0.682 2.726-2.954 1.363-2.272-0.454-5 3.408 1.137 2.271-2.954 1.363-3.636 0.909z"/>
 </g>
 <path id="path-24" d="m26.786 21.622l0.454 7.269-3.408 3.18h-2.5l-0.682 1.136-9.089 1.136 0.909 5.452-5.4536 2.044-1.8179 3.408 2.9541 5.679-3.6358 5.906 4.0902 2.726 4.999 2.272 3.181 7.269-1.136 3.862-4.999 1.136-1.8177 4.089-4.9992 0.908-3.1813 3.635 1.5907 6.361-1.477 7.837 2.7836 2.101 3.3517 4.772 3.5222 1.25 2.954-1.19 3.181 0.68-1.136 0.91 0.227 1.36 1.818 0.23 3.636-0.23 6.135 5.68-0.227 13.63 4.431 1.36 4.204-4.32-1.25-3.74 2.386-1.93v-2.28l7.499-2.27 5.226-2.95 1.364 1.13 10.225-0.45 1.591 1.14 2.727-2.05 2.045 0.23 1.136-2.05-3.181-4.31-0.682-4.772 3.181-9.995 6.59-3.181-0.454-4.997 3.863-2.045 1.59-2.726 0.909 3.635 2.045 2.271 1.591-1.135 1.136 0.681 1.818-0.681v-3.408l1.818-1.59-0.909-1.59 12.043-3.635 2.275 0.909 0.91-7.724 9.09 3.862 4.09 0.454 3.18-2.726 4.31 2.954 3.87-0.455 4.32-1.817h1.59l1.59 3.18 3.18-1.136 1.82-4.77-0.91-4.771-4.09-1.363 1.13-3.18-2.72-2.953-2.05 1.136-0.23-1.59-2.27-4.089-0.68 1.363h-2.95l-1.6 0.908v-2.498l-2.27-4.544-0.68-4.77 1.14-1.59-2.5-2.499 0.68-4.089v-2.726l5.23-5.452-1.37-4.543 2.73-2.726-7.73-1.363-12.72-3.4078-5.91-3.1803-5.454-1.8173-4.317-0.2271 0.227-2.9532-4.999 2.4988-1.591 2.0445h-10.225l-0.228-1.5901-2.499 0.2271 0.909 3.1803-2.727 2.2717-9.544 1.1354-7.499-1.8169-4.544-1.363-0.455 4.5429-5.681-1.363 0.682 2.726-2.954 1.363-2.272-0.454-5 3.408 1.137 2.271-2.954 1.363-3.636 0.909z"/>
</g>
<g id="pathKadikoy" transform="translate(4 136)">
  <g id="path-25-link" stroke="#000" fill="url(#linearGradient-25)">
   <path id="path-25" d="m34.348 11.074l6.132-4.0566 1.514-2.6474 3.228 0.2941 0.997 3.4753 4.453 1.5624 2.065-1.0633 1.432 0.1989 0.307 3.4306 6.25 1.166 2.867 5.675 5.126 1.176-2.453 0.811-1.489 2.741-2.332 1.453-5.705-1.106-5.074 0.494-6.274 9.406-5.802 0.889-3.56 3.778-9.523-4.876-0.526-1.985-5.554-1.38-6.198-4.271-1.629 3.47-1.951-2.795-3.2365 1.543 0.9413-5.044 2.5482-2.473-1.3084-2.473-7.1155 2.121-0.0437-3.913-1.7874-3.763 3.6749-0.546-0.2573-2.4255-2.343 0.0665-0.2424-1.3759 4.5773-1.8707 0.8509-2.4955 3.4956-4.0502 2.393 1.5237 2.977 0.3175-1.022 1.553 1.431 3.3807 12.907 6.4654 4.959-0.628 0.3-1.753z"/>
 </g>
 <path id="path-25" d="m34.348 11.074l6.132-4.0566 1.514-2.6474 3.228 0.2941 0.997 3.4753 4.453 1.5624 2.065-1.0633 1.432 0.1989 0.307 3.4306 6.25 1.166 2.867 5.675 5.126 1.176-2.453 0.811-1.489 2.741-2.332 1.453-5.705-1.106-5.074 0.494-6.274 9.406-5.802 0.889-3.56 3.778-9.523-4.876-0.526-1.985-5.554-1.38-6.198-4.271-1.629 3.47-1.951-2.795-3.2365 1.543 0.9413-5.044 2.5482-2.473-1.3084-2.473-7.1155 2.121-0.0437-3.913-1.7874-3.763 3.6749-0.546-0.2573-2.4255-2.343 0.0665-0.2424-1.3759 4.5773-1.8707 0.8509-2.4955 3.4956-4.0502 2.393 1.5237 2.977 0.3175-1.022 1.553 1.431 3.3807 12.907 6.4654 4.959-0.628 0.3-1.753z"/>
</g>
<g id="pathKartal" transform="translate(60 173)">
  <g id="path-26-link" stroke="#000" fill="url(#linearGradient-26)">
   <path id="path-26" d="m39.888 1.2206l2.115-0.5229 1.675 2.0108 7.888-1.3121 1.639 3.6359 1.882 8.3087-2.113 6.005-3.227 1.805 2.075 10.498-2.267 2.612-2.113-0.589-2.587 3.584-4.06-2.24-0.525 4.186-2.01-0.153-0.564 1.946-0.896 5.313-5.631-2.963-6.927-2.484-1.632 0.726-2.585 0.091-2.59-3.602-8.0551-5.526-4.518-0.401-3.934-3.952 0.8707-0.737-0.7245-2.018 3.9347-1.71 1.9756 2.805 9.7616-6.138 11.713-1.047 1.21-1.288 0.262 1.553 2.235-1.117 2.623-10.241 2.711-4.001 2.388-3.0374z"/>
 </g>
 <path id="path-26" d="m39.888 1.2206l2.115-0.5229 1.675 2.0108 7.888-1.3121 1.639 3.6359 1.882 8.3087-2.113 6.005-3.227 1.805 2.075 10.498-2.267 2.612-2.113-0.589-2.587 3.584-4.06-2.24-0.525 4.186-2.01-0.153-0.564 1.946-0.896 5.313-5.631-2.963-6.927-2.484-1.632 0.726-2.585 0.091-2.59-3.602-8.0551-5.526-4.518-0.401-3.934-3.952 0.8707-0.737-0.7245-2.018 3.9347-1.71 1.9756 2.805 9.7616-6.138 11.713-1.047 1.21-1.288 0.262 1.553 2.235-1.117 2.623-10.241 2.711-4.001 2.388-3.0374z"/>
</g>
<g id="pathMaltepe" transform="translate(40 156)">
  <g id="path-27-link" stroke="#000" fill="url(#linearGradient-27)">
   <path id="path-27" d="m57.157 17.739l-4.152-5.021 3.443-7.948-2.557-3.0791-2.378 1.3871-2.777-0.5258-0.346-1.5452-4.673 0.5201-1.942 2.7879-2.428-2.0466-1.631 0.5355-4.997-2.5192-2.453 0.8115-1.489 2.7408-2.332 1.4527-5.705-1.106-5.074 0.4942-6.2739 9.4061-5.8021 0.889-3.5597 3.778 4.485 2.661 7.6927 9.73 4.639 7.485 4.081 6.57 0.871-0.737-0.725-2.018 3.935-1.71 1.975 2.805 9.762-6.138 11.713-1.047 1.21-1.288 0.262 1.553 2.235-1.117 2.623-10.241 2.711-4.001-0.343-3.519z"/>
 </g>
 <path id="path-27" d="m57.157 17.739l-4.152-5.021 3.443-7.948-2.557-3.0791-2.378 1.3871-2.777-0.5258-0.346-1.5452-4.673 0.5201-1.942 2.7879-2.428-2.0466-1.631 0.5355-4.997-2.5192-2.453 0.8115-1.489 2.7408-2.332 1.4527-5.705-1.106-5.074 0.4942-6.2739 9.4061-5.8021 0.889-3.5597 3.778 4.485 2.661 7.6927 9.73 4.639 7.485 4.081 6.57 0.871-0.737-0.725-2.018 3.935-1.71 1.975 2.805 9.762-6.138 11.713-1.047 1.21-1.288 0.262 1.553 2.235-1.117 2.623-10.241 2.711-4.001-0.343-3.519z"/>
</g>
<g id="pathPendik" transform="translate(96 115)">
  <g id="path-28-link" stroke="#000" fill="url(#linearGradient-28)">
   <path id="path-28" d="m55.048 0.4406l-4.098 1.5875-0.909 2.9574 1.818 0.6785-0.909 5.684-1.358-1.139-6.364 0.448-2.049 1.139-3.407-0.448-1.14 2.945 2.728 7.95-3.855 2.958-1.37 4.314 1.14 12.495v2.727l6.813 10.23 2.958-0.909 0.909 2.035-0.909 6.133-6.821 5.697-7.373 1.954-2.874 1.632-0.447-1.071-3.017 0.695-5.427 0.213-2.107 5.993-3.231 1.817 2.071 10.491-2.268 2.62-2.106-0.593-2.589 3.584-4.0594-2.243-0.5244 4.183-2.013-0.148-0.5668 1.94-0.8882 5.31 3.6778 1.86 1.2676 2.82 3.1957-0.07 0.3035-2 1.9102-0.55 8.98 5.23 3.357 4.11-3.299 1.82 2.647 1.19 2.968-1.54 8.271 1.99 2.779-1.05 2.049-4.53 2.715-0.25 1.37 2.73 3.637-2.94-1.14-5.46-2.036-2.05 3.407-0.67 6.582-7.943-0.679-11.368 3.868-2.279 1.588-8.181-0.909-2.496 1.588-1.588 2.727-0.909h4.547l7.722-4.545 1.819-3.853 2.727 0.448 0.91-2.945 2.727-0.23v-1.37l1.371 1.139 2.266-2.048 0.91-5.224 3.406 3.188 4.316-7.041 5.689-2.497 7.72 0.218 4.55-3.175-0.47 12.495 1.37 2.945 3.18 2.509h2.96l6.59-15.222 3.18-0.679 4.55-4.096 2.96-9.09-6.37-5.441 0.22-3.188s2.96-2.953 2.96-7.951l0.78-3.584-1.94-2.5736-6.09 3.8666-0.98 5.454-16.05 14.134-3.22 0.64-2.89-3.854 1.93-3.213-2.89-2.881-2.578-1.613 2.578-2.573-9.327-4.494-3.855 2.253-10.283-3.853-4.265 0.934-4.098-1.139-1.357-5.2235-5.904-1.818v-4.084h-4.329l-3.624-0.4609z"/>
 </g>
 <path id="path-28" d="m55.048 0.4406l-4.098 1.5875-0.909 2.9574 1.818 0.6785-0.909 5.684-1.358-1.139-6.364 0.448-2.049 1.139-3.407-0.448-1.14 2.945 2.728 7.95-3.855 2.958-1.37 4.314 1.14 12.495v2.727l6.813 10.23 2.958-0.909 0.909 2.035-0.909 6.133-6.821 5.697-7.373 1.954-2.874 1.632-0.447-1.071-3.017 0.695-5.427 0.213-2.107 5.993-3.231 1.817 2.071 10.491-2.268 2.62-2.106-0.593-2.589 3.584-4.0594-2.243-0.5244 4.183-2.013-0.148-0.5668 1.94-0.8882 5.31 3.6778 1.86 1.2676 2.82 3.1957-0.07 0.3035-2 1.9102-0.55 8.98 5.23 3.357 4.11-3.299 1.82 2.647 1.19 2.968-1.54 8.271 1.99 2.779-1.05 2.049-4.53 2.715-0.25 1.37 2.73 3.637-2.94-1.14-5.46-2.036-2.05 3.407-0.67 6.582-7.943-0.679-11.368 3.868-2.279 1.588-8.181-0.909-2.496 1.588-1.588 2.727-0.909h4.547l7.722-4.545 1.819-3.853 2.727 0.448 0.91-2.945 2.727-0.23v-1.37l1.371 1.139 2.266-2.048 0.91-5.224 3.406 3.188 4.316-7.041 5.689-2.497 7.72 0.218 4.55-3.175-0.47 12.495 1.37 2.945 3.18 2.509h2.96l6.59-15.222 3.18-0.679 4.55-4.096 2.96-9.09-6.37-5.441 0.22-3.188s2.96-2.953 2.96-7.951l0.78-3.584-1.94-2.5736-6.09 3.8666-0.98 5.454-16.05 14.134-3.22 0.64-2.89-3.854 1.93-3.213-2.89-2.881-2.578-1.613 2.578-2.573-9.327-4.494-3.855 2.253-10.283-3.853-4.265 0.934-4.098-1.139-1.357-5.2235-5.904-1.818v-4.084h-4.329l-3.624-0.4609z"/>
</g>
<g id="pathSile" transform="translate(146 13)">
  <g id="path-29-link" stroke="#000" fill="url(#linearGradient-29)">
   <path id="path-29" d="m21.372 3.4823l3.488-1.4776 3.488 0.9318 4.452-2.7627c0.321 1.9276 0.32 1.9332 0.32 1.9332l24.742 8.347 5.788 0.973 25.063 9.308 1.293-1.281 26.024 8.028 11.9 0.973 4.17-2.574-0.96-2.573 2.89-1.28 1.93 0.96 1.28-0.96 1.61 1.92 2.89-0.96 0.64 2.573 3.54 0.64 0.64 1.921 4.17 0.653 0.32-1.613 0.66 2.253 8.67 2.893 0.96-1.933 1.61 0.64 0.64 1.293 4.18 1.28 9.64-0.64 1.29 2.574 10.27 1.6 2.26 0.96 5.15-2.88 5.13 0.96 0.96 0.96 2.58-0.96 3.21-0.96 3.22 1.28 5.78 0.64 1.28 0.96-0.96 1.613 2.9-0.96 7.71 4.174 4.81 2.24 11.9 3.214h2.56l0.65-3.214h3.86l0.64 1.933 4.17-0.96 0.97 1.921 12.21-3.534 7.07 2.253-2.25 0.64 1.93 1.614-0.64 7.707-2.57 1.92 2.89 7.067-1.93 2.573 1.61 3.534 6.43 1.933 2.89-0.973 3.54 0.973 3.2-1.933 1.93 0.64 2.26 3.854-1.29 1.613 1.29 2.253-0.32 1.28-1.3 0.32-0.32 2.254-9.64-4.174-6.75 0.96-1.92 2.893-2.57 2.241-0.32 4.186-5.79 7.387v2.241l-3.54 4.825-2.89 0.64-0.64 3.54-6.11-0.32v1.92l-2.24 0.97v1.92l-3.86 2.57-3.53 4.18h-1.61l-2.24 2.25-1.62 0.32v2.57l-2.57 1.28-1.92-1.6-5.47-0.65-1.6-2.88h-4.19l-2.24 5.13-1.61-4.81-2.89-1.29-1.29-1.92-2.57-1.62-3.54 1.62-7.07-2.26-6.75-5.13h-2.24v-4.51l-2.57 1.94v2.24l-2.26-2.89v4.18l-1.6 2.57-2.25-1.61 0.96 3.53-5.78-2.89-0.32 9 2.9 0.64 0.64 3.21 2.56 0.96-0.32 3.86-2.88 0.65-3.54 3.53-0.97 3.54-6.11 1.28-3.2 11.24-10.28 0.97-13.18-1.93-9.64-6.75-1.29-17.99-3.86 4.82-0.32-8.03-1.28-2.57 0.96-4.18-11.25-5.14v2.25l-7.71-4.17-2.25 0.64-0.96 1.93-6.43-0.65-3.535 1.29v3.21l-2.894-4.17 0.961-1.93-3.855-3.54-4.495 1.28v3.22l-2.894 2.89-1.934-2.57-6.096 3.86-0.973 5.46-16.06 14.13-3.214 0.64-2.894-3.85 1.933-3.22-2.894-2.88-2.574-1.61 2.574-2.57-9.323-4.5-3.855 2.26-10.283-3.86-3.535-16.706 8.35-11.573 1.614-1.6v-1.293l2.241-0.961v-2.24l-5.136-2.573 2.574-2.574h3.215v-3.213l-4.188-1.921-4.175-4.506-1.921-7.067-3.534-2.893-2.311 1.855-2.53-1.946 1.826-4.468-0.621-4.61-4.317-1.88 1.14-3.188-2.728-2.944-2.049 1.139-0.231-1.6-2.267-4.084-0.6783 1.357h-2.9583l-1.588 0.909v-2.497l-2.2795-4.545-0.6788-4.762 1.1398-1.601-2.4972-2.496 0.6787-4.084v-2.727l5.225-5.4539-1.3574-4.5449 2.7149-2.727 9.1571 2.017 4.452 1.2531z"/>
 </g>
 <path id="path-29" d="m21.372 3.4823l3.488-1.4776 3.488 0.9318 4.452-2.7627c0.321 1.9276 0.32 1.9332 0.32 1.9332l24.742 8.347 5.788 0.973 25.063 9.308 1.293-1.281 26.024 8.028 11.9 0.973 4.17-2.574-0.96-2.573 2.89-1.28 1.93 0.96 1.28-0.96 1.61 1.92 2.89-0.96 0.64 2.573 3.54 0.64 0.64 1.921 4.17 0.653 0.32-1.613 0.66 2.253 8.67 2.893 0.96-1.933 1.61 0.64 0.64 1.293 4.18 1.28 9.64-0.64 1.29 2.574 10.27 1.6 2.26 0.96 5.15-2.88 5.13 0.96 0.96 0.96 2.58-0.96 3.21-0.96 3.22 1.28 5.78 0.64 1.28 0.96-0.96 1.613 2.9-0.96 7.71 4.174 4.81 2.24 11.9 3.214h2.56l0.65-3.214h3.86l0.64 1.933 4.17-0.96 0.97 1.921 12.21-3.534 7.07 2.253-2.25 0.64 1.93 1.614-0.64 7.707-2.57 1.92 2.89 7.067-1.93 2.573 1.61 3.534 6.43 1.933 2.89-0.973 3.54 0.973 3.2-1.933 1.93 0.64 2.26 3.854-1.29 1.613 1.29 2.253-0.32 1.28-1.3 0.32-0.32 2.254-9.64-4.174-6.75 0.96-1.92 2.893-2.57 2.241-0.32 4.186-5.79 7.387v2.241l-3.54 4.825-2.89 0.64-0.64 3.54-6.11-0.32v1.92l-2.24 0.97v1.92l-3.86 2.57-3.53 4.18h-1.61l-2.24 2.25-1.62 0.32v2.57l-2.57 1.28-1.92-1.6-5.47-0.65-1.6-2.88h-4.19l-2.24 5.13-1.61-4.81-2.89-1.29-1.29-1.92-2.57-1.62-3.54 1.62-7.07-2.26-6.75-5.13h-2.24v-4.51l-2.57 1.94v2.24l-2.26-2.89v4.18l-1.6 2.57-2.25-1.61 0.96 3.53-5.78-2.89-0.32 9 2.9 0.64 0.64 3.21 2.56 0.96-0.32 3.86-2.88 0.65-3.54 3.53-0.97 3.54-6.11 1.28-3.2 11.24-10.28 0.97-13.18-1.93-9.64-6.75-1.29-17.99-3.86 4.82-0.32-8.03-1.28-2.57 0.96-4.18-11.25-5.14v2.25l-7.71-4.17-2.25 0.64-0.96 1.93-6.43-0.65-3.535 1.29v3.21l-2.894-4.17 0.961-1.93-3.855-3.54-4.495 1.28v3.22l-2.894 2.89-1.934-2.57-6.096 3.86-0.973 5.46-16.06 14.13-3.214 0.64-2.894-3.85 1.933-3.22-2.894-2.88-2.574-1.61 2.574-2.57-9.323-4.5-3.855 2.26-10.283-3.86-3.535-16.706 8.35-11.573 1.614-1.6v-1.293l2.241-0.961v-2.24l-5.136-2.573 2.574-2.574h3.215v-3.213l-4.188-1.921-4.175-4.506-1.921-7.067-3.534-2.893-2.311 1.855-2.53-1.946 1.826-4.468-0.621-4.61-4.317-1.88 1.14-3.188-2.728-2.944-2.049 1.139-0.231-1.6-2.267-4.084-0.6783 1.357h-2.9583l-1.588 0.909v-2.497l-2.2795-4.545-0.6788-4.762 1.1398-1.601-2.4972-2.496 0.6787-4.084v-2.727l5.225-5.4539-1.3574-4.5449 2.7149-2.727 9.1571 2.017 4.452 1.2531z"/>
</g>
<g id="pathSultanbeyli" transform="translate(111 142)">
  <g id="path-30-link" stroke="#000" fill="url(#linearGradient-30)">
   <path id="path-30" d="m20.275 15.01v2.727l6.813 10.23 2.958-0.909 0.909 2.035-0.909 6.133-6.821 5.697-7.373 1.954-2.874 1.632-0.447-1.071-3.0169 0.695-5.4273 0.213-1.8795-8.318-1.6407-3.635 2.071-3.821-2.3178-5.23-0.01783-2.359 3.1957-3.966-0.2031-1.921 1.2431-1.44 0.2365-4.6456 2.0041-8.5009 1.6826 2.2613 3.3561 1.6963 3.196 3.142 1.428 3.7849 1.75 2.178 2.084 1.438z"/>
 </g>
 <path id="path-30" d="m20.275 15.01v2.727l6.813 10.23 2.958-0.909 0.909 2.035-0.909 6.133-6.821 5.697-7.373 1.954-2.874 1.632-0.447-1.071-3.0169 0.695-5.4273 0.213-1.8795-8.318-1.6407-3.635 2.071-3.821-2.3178-5.23-0.01783-2.359 3.1957-3.966-0.2031-1.921 1.2431-1.44 0.2365-4.6456 2.0041-8.5009 1.6826 2.2613 3.3561 1.6963 3.196 3.142 1.428 3.7849 1.75 2.178 2.084 1.438z"/>
</g>
<g id="pathTuzla" transform="translate(113 157)">
  <g id="path-31-link" stroke="#000" fill="url(#linearGradient-31)">
   <path id="path-31" d="m79.384 49.739l-2.915 2.73-0.746 9.998-4.925-0.178-5.487 2.912-4.939 1.371-3.974 4.965-2.44 0.981-0.984 2.703 1.211 1.97-3.149 3.778 5.054 6.541-1.052 2.524-2.819 6.862 1.037 5.734-7.319-6.95-5.229 8.47-4.748-4.866-4.908-0.688-3.711 5.044-5.385-3.862-2.331 2.402-5.385 0.63-2.492-1.46-4.7424 1.92-1.3677 1.75-0.2429 3.85-4.4205 1.11 0.7814-2.58 1.5848-2.42-1.4681-3.55 3.6736-0.97 2.5489 0.79 0.4601-3.226 3.0308-0.493 1.906-2.903-0.785-3.685-3.0346-0.152-1.8918-1.268 0.3578-1.75-2.2131-1.428 2.2892-1.049 2.1285 2.967 2.611 1.199 2.45-4.904 3.092-1.21-1.406-6.189 2.771-1.049 2.047-4.538 2.723-0.235 1.365 2.725 3.644-2.949-1.143-5.453-2.042-2.043 3.409-0.681 6.586-7.944-0.678-11.358 3.863-2.281 1.591-8.179-0.912-2.499 1.589-1.59 2.727-0.909h4.547l7.722-4.545 1.819-3.853 2.727 0.448 0.91-2.945 2.727-0.23v-1.37l1.371 1.139 2.266-2.048 0.91-5.2236 3.406 3.1876 4.316-7.0412 5.686-2.4965 7.722 0.2177 4.547-3.1751-0.461 12.495 1.37 2.945-2.05 4.099-5.904 4.316-1.358 2.951 2.949 2.956-0.226 9.761 2.731 0.224 1.361-0.898 2.263 3.627s-4.995 4.316-4.995 4.089l-2.624 3.007-8.978-0.074z"/>
 </g>
 <path id="path-31" d="m79.384 49.739l-2.915 2.73-0.746 9.998-4.925-0.178-5.487 2.912-4.939 1.371-3.974 4.965-2.44 0.981-0.984 2.703 1.211 1.97-3.149 3.778 5.054 6.541-1.052 2.524-2.819 6.862 1.037 5.734-7.319-6.95-5.229 8.47-4.748-4.866-4.908-0.688-3.711 5.044-5.385-3.862-2.331 2.402-5.385 0.63-2.492-1.46-4.7424 1.92-1.3677 1.75-0.2429 3.85-4.4205 1.11 0.7814-2.58 1.5848-2.42-1.4681-3.55 3.6736-0.97 2.5489 0.79 0.4601-3.226 3.0308-0.493 1.906-2.903-0.785-3.685-3.0346-0.152-1.8918-1.268 0.3578-1.75-2.2131-1.428 2.2892-1.049 2.1285 2.967 2.611 1.199 2.45-4.904 3.092-1.21-1.406-6.189 2.771-1.049 2.047-4.538 2.723-0.235 1.365 2.725 3.644-2.949-1.143-5.453-2.042-2.043 3.409-0.681 6.586-7.944-0.678-11.358 3.863-2.281 1.591-8.179-0.912-2.499 1.589-1.59 2.727-0.909h4.547l7.722-4.545 1.819-3.853 2.727 0.448 0.91-2.945 2.727-0.23v-1.37l1.371 1.139 2.266-2.048 0.91-5.2236 3.406 3.1876 4.316-7.0412 5.686-2.4965 7.722 0.2177 4.547-3.1751-0.461 12.495 1.37 2.945-2.05 4.099-5.904 4.316-1.358 2.951 2.949 2.956-0.226 9.761 2.731 0.224 1.361-0.898 2.263 3.627s-4.995 4.316-4.995 4.089l-2.624 3.007-8.978-0.074z"/>
</g>
<g id="pathUskudar" transform="translate(0 96)">
  <g id="path-32-link" stroke="#000" fill="url(#linearGradient-32)">
   <path id="path-32" d="m38.348 51.074l1.196-7.254-3.388-10.724-1.621-3.156 2.875-1.243 2.386-3.159-0.98-10.069-2.935-2.24 1.724-2.079-0.147-2.0044-3.551-1.3429-3.307-4.8066-2.9-2.1594-1.624 1.5315-2.274 0.4051-0.044 1.87 0.76 2.8337-2.502 3.118-0.091 2.797-0.023 4.755-4.682 2.666-10.949 8.129-2.2725 3.149-2.0194-0.577-1.0078 2.673 1.4261 3.947 1.5862 7.485-1.3821 0.466 0.0672 1.191 2.8105 1.355 4.5778-1.871 0.85-2.495 3.496-4.05 2.393 1.523 2.977 0.318-1.022 1.553 1.431 3.381 12.907 6.465 4.959-0.628 0.3-1.753z"/>
 </g>
 <path id="path-32" d="m38.348 51.074l1.196-7.254-3.388-10.724-1.621-3.156 2.875-1.243 2.386-3.159-0.98-10.069-2.935-2.24 1.724-2.079-0.147-2.0044-3.551-1.3429-3.307-4.8066-2.9-2.1594-1.624 1.5315-2.274 0.4051-0.044 1.87 0.76 2.8337-2.502 3.118-0.091 2.797-0.023 4.755-4.682 2.666-10.949 8.129-2.2725 3.149-2.0194-0.577-1.0078 2.673 1.4261 3.947 1.5862 7.485-1.3821 0.466 0.0672 1.191 2.8105 1.355 4.5778-1.871 0.85-2.495 3.496-4.05 2.393 1.523 2.977 0.318-1.022 1.553 1.431 3.381 12.907 6.465 4.959-0.628 0.3-1.753z"/>
</g>
<g id="pathUmraniye" transform="translate(33 63)">
  <g id="path-33-link" stroke="#000" fill="url(#linearGradient-33)">
   <path id="path-33" d="m137.36 65.166l-4.1-1.139-1.36-5.224-5.9-1.817v-4.085h-4.33l-3.62-0.46-4.1 1.587-0.91 2.958 1.82 0.678-0.91 5.684-1.36-1.139-6.36 0.448-2.05 1.139-3.41-0.448-1.138 2.945 2.728 7.95-3.855 2.958-1.37 4.314 1.14 12.495-2.088-1.433-1.741-2.19-1.435-3.776-3.189-3.15-3.355-1.69-1.69-2.266-1.998 8.501-0.243 4.647-1.243 1.447 0.205 1.92-3.201 3.956 0.025 2.364 2.318 5.23-2.074 3.83-7.889 1.3-1.678-2.01-2.113 0.53-2.382 3.04-0.346-3.52-4.149-5.03 3.445-7.936-2.561-3.085-2.382 1.383-2.779-0.525-0.346-1.537-4.675 0.513-1.933 2.791-2.434-2.049-1.626 0.538-4.994-2.522-5.136-1.165-2.869-5.685-6.249-1.165-0.295-3.431-1.434-0.192-2.075 1.063-4.443-1.562-0.999-3.482-3.228-0.295-1.511 2.65-6.1341 4.059 1.191-7.259-3.3809-10.716-1.6264-3.162 2.8815-1.242 2.382-3.162-0.9861-10.063-2.9327-2.241 1.7289-2.086-0.1636-2.122 2.9298-1.169 3.1886 0.679-1.1396 0.909 0.2305 1.37 1.8181 0.217 3.637-0.217 6.135 5.671-0.231 13.635 4.431 1.357 4.201-4.314-1.242-3.739 2.382-1.933v-2.279l7.504-2.266 5.225-2.957 1.358 1.139 10.232-0.461 1.588 1.14 2.728-2.049 2.036 0.231 1.14-2.049-3.176-4.314-0.692-4.763 3.189-9.998 6.583-3.176-0.449-5.005 3.868-2.036 1.588-2.727 0.909 3.636 2.037 2.266 1.6-1.139 1.127 0.678 1.819-0.678v-3.406l1.818-1.587-0.909-1.588 12.051-3.6358 2.267 0.909 0.909-7.7327 9.095 3.8664 4.08 0.4608 3.19-2.7269 4.32 2.9446 3.85-0.4481 4.33-1.818h1.59l1.59 3.1751 3.17-1.1267 2.44 1.9881 2.4-1.821 3.54 2.8452 1.77 7.112 4.29 4.426 4.22 1.955-0.01 3.135-3.22 0.162-2.58 2.494 5.16 2.651-0.03 2.192-2.23 1.015 0.08 1.223-1.69 1.62-8.34 11.591 3.47 16.675-4.26 0.934zm-136.41-24.35l-0.03842-0.013 0.03842 0.013z"/>
 </g>
 <path id="path-33" d="m137.36 65.166l-4.1-1.139-1.36-5.224-5.9-1.817v-4.085h-4.33l-3.62-0.46-4.1 1.587-0.91 2.958 1.82 0.678-0.91 5.684-1.36-1.139-6.36 0.448-2.05 1.139-3.41-0.448-1.138 2.945 2.728 7.95-3.855 2.958-1.37 4.314 1.14 12.495-2.088-1.433-1.741-2.19-1.435-3.776-3.189-3.15-3.355-1.69-1.69-2.266-1.998 8.501-0.243 4.647-1.243 1.447 0.205 1.92-3.201 3.956 0.025 2.364 2.318 5.23-2.074 3.83-7.889 1.3-1.678-2.01-2.113 0.53-2.382 3.04-0.346-3.52-4.149-5.03 3.445-7.936-2.561-3.085-2.382 1.383-2.779-0.525-0.346-1.537-4.675 0.513-1.933 2.791-2.434-2.049-1.626 0.538-4.994-2.522-5.136-1.165-2.869-5.685-6.249-1.165-0.295-3.431-1.434-0.192-2.075 1.063-4.443-1.562-0.999-3.482-3.228-0.295-1.511 2.65-6.1341 4.059 1.191-7.259-3.3809-10.716-1.6264-3.162 2.8815-1.242 2.382-3.162-0.9861-10.063-2.9327-2.241 1.7289-2.086-0.1636-2.122 2.9298-1.169 3.1886 0.679-1.1396 0.909 0.2305 1.37 1.8181 0.217 3.637-0.217 6.135 5.671-0.231 13.635 4.431 1.357 4.201-4.314-1.242-3.739 2.382-1.933v-2.279l7.504-2.266 5.225-2.957 1.358 1.139 10.232-0.461 1.588 1.14 2.728-2.049 2.036 0.231 1.14-2.049-3.176-4.314-0.692-4.763 3.189-9.998 6.583-3.176-0.449-5.005 3.868-2.036 1.588-2.727 0.909 3.636 2.037 2.266 1.6-1.139 1.127 0.678 1.819-0.678v-3.406l1.818-1.587-0.909-1.588 12.051-3.6358 2.267 0.909 0.909-7.7327 9.095 3.8664 4.08 0.4608 3.19-2.7269 4.32 2.9446 3.85-0.4481 4.33-1.818h1.59l1.59 3.1751 3.17-1.1267 2.44 1.9881 2.4-1.821 3.54 2.8452 1.77 7.112 4.29 4.426 4.22 1.955-0.01 3.135-3.22 0.162-2.58 2.494 5.16 2.651-0.03 2.192-2.23 1.015 0.08 1.223-1.69 1.62-8.34 11.591 3.47 16.675-4.26 0.934zm-136.41-24.35l-0.03842-0.013 0.03842 0.013z"/>
</g>
</g>
</g>
</g>
</g>
</svg>
