<?xml version="1.0" encoding="UTF-8" standalone="no"?>
<svg width="71px" height="152px" viewBox="0 0 71 152" version="1.1" xmlns="http://www.w3.org/2000/svg" xmlns:xlink="http://www.w3.org/1999/xlink" xmlns:sketch="http://www.bohemiancoding.com/sketch/ns">
    <!-- Generator: Sketch 3.4 (15588) - http://www.bohemiancoding.com/sketch -->
    <title>lale</title>
    <desc>Created with Sketch.</desc>
    <defs></defs>
    <g id="Page-1" stroke="none" stroke-width="1" fill="none" fill-rule="evenodd" sketch:type="MSPage">
        <path d="M2.0382127,106.571245 C0.521480503,114.851455 0.501897943,120.781433 2.21677035,126.265295 C7.09362523,143.26681 20.0418859,151.606119 36.5683753,151.838194 C45.1234916,150.609496 39.4027068,151.386602 39.4027068,151.386602 C66.0751799,149.91086 74.1559332,124.708312 69.4829836,102.162747 L58.1861033,49.8856548 C54.5186719,36.7915841 56.0142867,23.7448288 61.0441641,10.7342028 C53.7840081,19.1581139 47.9620773,27.6836523 47.296032,36.5241218 C45.1629216,50.2382877 50.9332948,76.8549989 55.5819211,108.936162 C55.9763224,118.426866 49.6447505,127.539305 45.0638775,129.907925 C53.0983772,102.429111 46.3343646,78.8475125 42.6201941,51.6855177 C41.5593706,43.9139853 41.3990221,34.4129929 41.7174389,28.2053584 C42.4566329,22.5068942 51.1704579,9.09088903 58.4408004,1.26394419 C50.819899,0.984570459 44.4437537,3.44068548 37.8180325,14.0017556 C30.3436891,5.58419631 21.6457925,-1.48660221 15.3316093,0.270060185 C23.3784757,9.03884516 30.5944854,17.5923969 31.6798528,26.3643702 C32.2199189,41.6785334 31.8257093,55.9046778 28.0165757,70.6114334 C21.992527,93.8910985 22.2908867,118.814124 28.9675447,130.531701 C23.853131,127.502533 16.4296167,119.549627 17.0664376,114.303925 C19.4692312,96.8645081 21.8779358,79.4201378 24.2867823,61.9851187 C25.5745737,46.8568335 26.3708503,32.5482604 23.8032634,25.1385735 C20.8776791,19.3831394 17.200775,12.3674251 12.4717097,9.09108752 C17.3968362,22.6434591 19.673865,36.715681 15.825074,52.753092 C11.5781049,71.5438291 4.8348038,91.3137959 2.0382127,106.571245 Z" id="lale" fill="#000000" sketch:type="MSShapeGroup"></path>
    </g>
</svg>