<?xml version="1.0" encoding="UTF-8" standalone="no"?>
<svg width="818px" height="47px" viewBox="0 0 818 47" version="1.1" xmlns="http://www.w3.org/2000/svg" xmlns:xlink="http://www.w3.org/1999/xlink" xmlns:sketch="http://www.bohemiancoding.com/sketch/ns">
    <!-- Generator: Sketch 3.4 (15588) - http://www.bohemiancoding.com/sketch -->
    <title>bg</title>
    <desc>Created with Sketch.</desc>
    <defs></defs>
    <g id="S2" stroke="none" stroke-width="1" fill="none" fill-rule="evenodd" sketch:type="MSPage">
        <g id="index-özet" sketch:type="MSArtboardGroup" transform="translate(-177.000000, -464.000000)" stroke-width="2" stroke="#FFFFFF">
            <g id="content" sketch:type="MSLayerGroup" transform="translate(-10.000000, 465.000000)">
                <g id="istatistik" sketch:type="MSShapeGroup">
                    <g id="bg" transform="translate(188.000000, 0.000000)">
                        <path d="M8,34 L173,8.5 L336.5,34 L496.5,8.5 L657.5,20.5 L810,36" id="Path-158"></path>
                        <path d="M174,20 C178.970563,20 183,15.9705627 183,11 C183,6.02943725 178.970563,2 174,2 C169.029437,2 165,6.02943725 165,11 C165,15.9705627 169.029437,20 174,20 Z" id="6" fill="#4D4D47"></path>
                        <circle id="5" fill="#4D4D47" cx="336" cy="35" r="9"></circle>
                        <circle id="4" fill="#4D4D47" cx="497" cy="8" r="8"></circle>
                        <path d="M656,29 C660.418278,29 664,25.418278 664,21 C664,16.581722 660.418278,13 656,13 C651.581722,13 648,16.581722 648,21 C648,25.418278 651.581722,29 656,29 Z" id="3" fill="#4D4D47"></path>
                        <path d="M808,45 C812.418278,45 816,41.418278 816,37 C816,32.581722 812.418278,29 808,29 C803.581722,29 800,32.581722 800,37 C800,41.418278 803.581722,45 808,45 Z" id="2" fill="#4C4D46"></path>
                        <circle id="1" fill="#4D4D47" cx="9" cy="36" r="9"></circle>
                    </g>
                </g>
            </g>
        </g>
    </g>
</svg>